0
SECTION
2
HEADER
9
$ACADVER
1
AC1009
9
$INSUNITS
70
4
0
ENDSEC
0
SECTION
2
ENTITIES
0
LINE
8
0
62
7
10
6
20
0
30
0
11
174
21
0
31
0
0
LINE
8
0
62
7
10
180
20
6
30
0
11
180
21
94
31
0
0
LINE
8
0
62
7
10
174
20
100
30
0
11
6
21
100
31
0
0
LINE
8
0
62
7
10
0
20
94
30
0
11
0
21
6
31
0
0
ARC
8
0
62
7
10
6
20
6
30
0
40
6
50
180
51
270
0
ARC
8
0
62
7
10
174
20
6
30
0
40
6
50
270
51
360
0
ARC
8
0
62
7
10
174
20
94
30
0
40
6
50
0
51
90
0
ARC
8
0
62
7
10
6
20
94
30
0
40
6
50
90
51
180
0
CIRCLE
8
0
62
7
10
6
20
6
30
0
40
1.7
0
CIRCLE
8
0
62
7
10
6
20
94
30
0
40
1.7
0
CIRCLE
8
0
62
7
10
174
20
6
30
0
40
1.7
0
CIRCLE
8
0
62
7
10
174
20
94
30
0
40
1.7
0
LINE
8
0
62
4
10
15
20
83
30
0
11
15
21
88
31
0
0
LINE
8
0
62
4
10
15
20
88
30
0
11
18
21
88
31
0
0
LINE
8
0
62
4
10
15
20
85.5
30
0
11
17.5
21
85.5
31
0
0
LINE
8
0
62
4
10
19.5
20
88
30
0
11
22.5
21
88
31
0
0
LINE
8
0
62
4
10
21
20
88
30
0
11
21
21
83
31
0
0
LINE
8
0
62
4
10
19.5
20
83
30
0
11
22.5
21
83
31
0
0
LINE
8
0
62
4
10
27
20
88
30
0
11
24
21
88
31
0
0
LINE
8
0
62
4
10
24
20
88
30
0
11
24
21
83
31
0
0
LINE
8
0
62
4
10
24
20
83
30
0
11
27
21
83
31
0
0
LINE
8
0
62
4
10
24
20
85.5
30
0
11
26.5
21
85.5
31
0
0
LINE
8
0
62
4
10
28.5
20
88
30
0
11
28.5
21
83
31
0
0
LINE
8
0
62
4
10
28.5
20
83
30
0
11
31.5
21
83
31
0
0
LINE
8
0
62
4
10
33
20
83
30
0
11
33
21
88
31
0
0
LINE
8
0
62
4
10
33
20
88
30
0
11
35
21
88
31
0
0
LINE
8
0
62
4
10
35
20
88
30
0
11
36
21
87
31
0
0
LINE
8
0
62
4
10
36
20
87
30
0
11
36
21
84
31
0
0
LINE
8
0
62
4
10
36
20
84
30
0
11
35
21
83
31
0
0
LINE
8
0
62
4
10
35
20
83
30
0
11
33
21
83
31
0
0
LINE
8
0
62
4
10
51
20
83
30
0
11
51
21
88
31
0
0
LINE
8
0
62
4
10
51
20
88
30
0
11
54
21
88
31
0
0
LINE
8
0
62
4
10
54
20
88
30
0
11
54
21
83
31
0
0
LINE
8
0
62
4
10
54
20
83
30
0
11
51
21
83
31
0
0
LINE
8
0
62
4
10
56
20
87
30
0
11
57
21
88
31
0
0
LINE
8
0
62
4
10
57
20
88
30
0
11
57
21
83
31
0
0
LINE
8
0
62
4
10
56
20
83
30
0
11
58
21
83
31
0
0
LINE
8
0
62
4
10
15
20
77
30
0
11
165
21
77
31
0
0
LINE
8
0
62
7
10
18
20
38
30
0
11
84
21
38
31
0
0
LINE
8
0
62
7
10
87
20
41
30
0
11
87
21
65
31
0
0
LINE
8
0
62
7
10
84
20
68
30
0
11
18
21
68
31
0
0
LINE
8
0
62
7
10
15
20
65
30
0
11
15
21
41
31
0
0
ARC
8
0
62
7
10
18
20
41
30
0
40
3
50
180
51
270
0
ARC
8
0
62
7
10
84
20
41
30
0
40
3
50
270
51
360
0
ARC
8
0
62
7
10
84
20
65
30
0
40
3
50
0
51
90
0
ARC
8
0
62
7
10
18
20
65
30
0
40
3
50
90
51
180
0
LINE
8
0
62
4
10
34
20
29
30
0
11
34
21
32
31
0
0
LINE
8
0
62
4
10
34
20
32
30
0
11
35.2
21
32
31
0
0
LINE
8
0
62
4
10
35.2
20
32
30
0
11
35.8
21
31.4
31
0
0
LINE
8
0
62
4
10
35.8
20
31.4
30
0
11
35.8
21
29.6
31
0
0
LINE
8
0
62
4
10
35.8
20
29.6
30
0
11
35.2
21
29
31
0
0
LINE
8
0
62
4
10
35.2
20
29
30
0
11
34
21
29
31
0
0
LINE
8
0
62
4
10
36.7
20
32
30
0
11
38.5
21
32
31
0
0
LINE
8
0
62
4
10
37.6
20
32
30
0
11
37.6
21
29
31
0
0
LINE
8
0
62
4
10
36.7
20
29
30
0
11
38.5
21
29
31
0
0
LINE
8
0
62
4
10
41.2
20
32
30
0
11
39.4
21
32
31
0
0
LINE
8
0
62
4
10
39.4
20
32
30
0
11
39.4
21
30.5
31
0
0
LINE
8
0
62
4
10
39.4
20
30.5
30
0
11
41.2
21
30.5
31
0
0
LINE
8
0
62
4
10
41.2
20
30.5
30
0
11
41.2
21
29
31
0
0
LINE
8
0
62
4
10
41.2
20
29
30
0
11
39.4
21
29
31
0
0
LINE
8
0
62
4
10
42.1
20
29
30
0
11
42.1
21
32
31
0
0
LINE
8
0
62
4
10
42.1
20
32
30
0
11
43.9
21
32
31
0
0
LINE
8
0
62
4
10
43.9
20
32
30
0
11
43.9
21
30.5
31
0
0
LINE
8
0
62
4
10
43.9
20
30.5
30
0
11
42.1
21
30.5
31
0
0
LINE
8
0
62
4
10
44.8
20
32
30
0
11
44.8
21
29
31
0
0
LINE
8
0
62
4
10
44.8
20
29
30
0
11
46.6
21
29
31
0
0
LINE
8
0
62
4
10
47.5
20
29
30
0
11
47.5
21
32
31
0
0
LINE
8
0
62
4
10
47.5
20
32
30
0
11
49.3
21
32
31
0
0
LINE
8
0
62
4
10
49.3
20
32
30
0
11
49.3
21
29
31
0
0
LINE
8
0
62
4
10
47.5
20
30.5
30
0
11
49.3
21
30.5
31
0
0
LINE
8
0
62
4
10
50.2
20
32
30
0
11
51.1
21
30.5
31
0
0
LINE
8
0
62
4
10
52
20
32
30
0
11
51.1
21
30.5
31
0
0
LINE
8
0
62
4
10
51.1
20
30.5
30
0
11
51.1
21
29
31
0
0
CIRCLE
8
0
62
7
10
112
20
54
30
0
40
7
0
LINE
8
0
62
4
10
110.3
20
41.4
30
0
11
110.9
21
42
31
0
0
LINE
8
0
62
4
10
110.9
20
42
30
0
11
110.9
21
39
31
0
0
LINE
8
0
62
4
10
110.3
20
39
30
0
11
111.5
21
39
31
0
0
CIRCLE
8
0
62
7
10
133
20
54
30
0
40
7
0
LINE
8
0
62
4
10
131
20
42
30
0
11
132.8
21
42
31
0
0
LINE
8
0
62
4
10
132.8
20
42
30
0
11
132.8
21
40.5
31
0
0
LINE
8
0
62
4
10
132.8
20
40.5
30
0
11
131
21
40.5
31
0
0
LINE
8
0
62
4
10
131
20
40.5
30
0
11
131
21
39
31
0
0
LINE
8
0
62
4
10
131
20
39
30
0
11
132.8
21
39
31
0
0
CIRCLE
8
0
62
7
10
154
20
54
30
0
40
7
0
LINE
8
0
62
4
10
152
20
42
30
0
11
153.8
21
42
31
0
0
LINE
8
0
62
4
10
153.8
20
42
30
0
11
153.8
21
39
31
0
0
LINE
8
0
62
4
10
152
20
40.5
30
0
11
153.8
21
40.5
31
0
0
LINE
8
0
62
4
10
152
20
39
30
0
11
153.8
21
39
31
0
0
LINE
8
0
62
7
10
103
20
17
30
0
11
104
21
17
31
0
0
LINE
8
0
62
7
10
106
20
19
30
0
11
106
21
27
31
0
0
LINE
8
0
62
7
10
104
20
29
30
0
11
103
21
29
31
0
0
LINE
8
0
62
7
10
101
20
27
30
0
11
101
21
19
31
0
0
ARC
8
0
62
7
10
103
20
19
30
0
40
2
50
180
51
270
0
ARC
8
0
62
7
10
104
20
19
30
0
40
2
50
270
51
360
0
ARC
8
0
62
7
10
104
20
27
30
0
40
2
50
0
51
90
0
ARC
8
0
62
7
10
103
20
27
30
0
40
2
50
90
51
180
0
LINE
8
0
62
7
10
113
20
17
30
0
11
114
21
17
31
0
0
LINE
8
0
62
7
10
116
20
19
30
0
11
116
21
27
31
0
0
LINE
8
0
62
7
10
114
20
29
30
0
11
113
21
29
31
0
0
LINE
8
0
62
7
10
111
20
27
30
0
11
111
21
19
31
0
0
ARC
8
0
62
7
10
113
20
19
30
0
40
2
50
180
51
270
0
ARC
8
0
62
7
10
114
20
19
30
0
40
2
50
270
51
360
0
ARC
8
0
62
7
10
114
20
27
30
0
40
2
50
0
51
90
0
ARC
8
0
62
7
10
113
20
27
30
0
40
2
50
90
51
180
0
LINE
8
0
62
7
10
123
20
17
30
0
11
124
21
17
31
0
0
LINE
8
0
62
7
10
126
20
19
30
0
11
126
21
27
31
0
0
LINE
8
0
62
7
10
124
20
29
30
0
11
123
21
29
31
0
0
LINE
8
0
62
7
10
121
20
27
30
0
11
121
21
19
31
0
0
ARC
8
0
62
7
10
123
20
19
30
0
40
2
50
180
51
270
0
ARC
8
0
62
7
10
124
20
19
30
0
40
2
50
270
51
360
0
ARC
8
0
62
7
10
124
20
27
30
0
40
2
50
0
51
90
0
ARC
8
0
62
7
10
123
20
27
30
0
40
2
50
90
51
180
0
LINE
8
0
62
7
10
133
20
17
30
0
11
134
21
17
31
0
0
LINE
8
0
62
7
10
136
20
19
30
0
11
136
21
27
31
0
0
LINE
8
0
62
7
10
134
20
29
30
0
11
133
21
29
31
0
0
LINE
8
0
62
7
10
131
20
27
30
0
11
131
21
19
31
0
0
ARC
8
0
62
7
10
133
20
19
30
0
40
2
50
180
51
270
0
ARC
8
0
62
7
10
134
20
19
30
0
40
2
50
270
51
360
0
ARC
8
0
62
7
10
134
20
27
30
0
40
2
50
0
51
90
0
ARC
8
0
62
7
10
133
20
27
30
0
40
2
50
90
51
180
0
LINE
8
0
62
7
10
143
20
17
30
0
11
144
21
17
31
0
0
LINE
8
0
62
7
10
146
20
19
30
0
11
146
21
27
31
0
0
LINE
8
0
62
7
10
144
20
29
30
0
11
143
21
29
31
0
0
LINE
8
0
62
7
10
141
20
27
30
0
11
141
21
19
31
0
0
ARC
8
0
62
7
10
143
20
19
30
0
40
2
50
180
51
270
0
ARC
8
0
62
7
10
144
20
19
30
0
40
2
50
270
51
360
0
ARC
8
0
62
7
10
144
20
27
30
0
40
2
50
0
51
90
0
ARC
8
0
62
7
10
143
20
27
30
0
40
2
50
90
51
180
0
LINE
8
0
62
7
10
153
20
17
30
0
11
154
21
17
31
0
0
LINE
8
0
62
7
10
156
20
19
30
0
11
156
21
27
31
0
0
LINE
8
0
62
7
10
154
20
29
30
0
11
153
21
29
31
0
0
LINE
8
0
62
7
10
151
20
27
30
0
11
151
21
19
31
0
0
ARC
8
0
62
7
10
153
20
19
30
0
40
2
50
180
51
270
0
ARC
8
0
62
7
10
154
20
19
30
0
40
2
50
270
51
360
0
ARC
8
0
62
7
10
154
20
27
30
0
40
2
50
0
51
90
0
ARC
8
0
62
7
10
153
20
27
30
0
40
2
50
90
51
180
0
CIRCLE
8
0
62
7
10
22
20
18
30
0
40
3
0
CIRCLE
8
0
62
7
10
37
20
18
30
0
40
3
0
CIRCLE
8
0
62
7
10
52
20
18
30
0
40
3
0
LINE
8
0
62
4
10
62.5
20
8.5
30
0
11
61
21
8.5
31
0
0
LINE
8
0
62
4
10
61
20
8.5
30
0
11
61
21
6
31
0
0
LINE
8
0
62
4
10
61
20
6
30
0
11
62.5
21
6
31
0
0
LINE
8
0
62
4
10
63.25
20
6
30
0
11
63.25
21
8.5
31
0
0
LINE
8
0
62
4
10
63.25
20
8.5
30
0
11
64.75
21
8.5
31
0
0
LINE
8
0
62
4
10
64.75
20
8.5
30
0
11
64.75
21
6
31
0
0
LINE
8
0
62
4
10
64.75
20
6
30
0
11
63.25
21
6
31
0
0
LINE
8
0
62
4
10
65.5
20
6
30
0
11
65.5
21
8.5
31
0
0
LINE
8
0
62
4
10
65.5
20
8.5
30
0
11
67
21
6
31
0
0
LINE
8
0
62
4
10
67
20
6
30
0
11
67
21
8.5
31
0
0
LINE
8
0
62
4
10
67.75
20
8.5
30
0
11
69.25
21
8.5
31
0
0
LINE
8
0
62
4
10
68.5
20
8.5
30
0
11
68.5
21
6
31
0
0
LINE
8
0
62
4
10
70
20
6
30
0
11
70
21
8.5
31
0
0
LINE
8
0
62
4
10
70
20
8.5
30
0
11
71.5
21
8.5
31
0
0
LINE
8
0
62
4
10
71.5
20
8.5
30
0
11
71.5
21
7.25
31
0
0
LINE
8
0
62
4
10
71.5
20
7.25
30
0
11
70
21
7.25
31
0
0
LINE
8
0
62
4
10
70.5
20
7.25
30
0
11
71.5
21
6
31
0
0
LINE
8
0
62
4
10
72.25
20
6
30
0
11
72.25
21
8.5
31
0
0
LINE
8
0
62
4
10
72.25
20
8.5
30
0
11
73.75
21
8.5
31
0
0
LINE
8
0
62
4
10
73.75
20
8.5
30
0
11
73.75
21
6
31
0
0
LINE
8
0
62
4
10
73.75
20
6
30
0
11
72.25
21
6
31
0
0
LINE
8
0
62
4
10
74.5
20
8.5
30
0
11
74.5
21
6
31
0
0
LINE
8
0
62
4
10
74.5
20
6
30
0
11
76
21
6
31
0
0
LINE
8
0
62
4
10
79
20
6
30
0
11
79
21
8.5
31
0
0
LINE
8
0
62
4
10
79
20
8.5
30
0
11
80.5
21
8.5
31
0
0
LINE
8
0
62
4
10
80.5
20
8.5
30
0
11
80.5
21
7.25
31
0
0
LINE
8
0
62
4
10
80.5
20
7.25
30
0
11
79
21
7.25
31
0
0
LINE
8
0
62
4
10
81.25
20
6
30
0
11
81.25
21
8.5
31
0
0
LINE
8
0
62
4
10
81.25
20
8.5
30
0
11
82.75
21
8.5
31
0
0
LINE
8
0
62
4
10
82.75
20
8.5
30
0
11
82.75
21
6
31
0
0
LINE
8
0
62
4
10
81.25
20
7.25
30
0
11
82.75
21
7.25
31
0
0
LINE
8
0
62
4
10
83.5
20
6
30
0
11
83.5
21
8.5
31
0
0
LINE
8
0
62
4
10
83.5
20
8.5
30
0
11
85
21
6
31
0
0
LINE
8
0
62
4
10
85
20
6
30
0
11
85
21
8.5
31
0
0
LINE
8
0
62
4
10
87.25
20
8.5
30
0
11
85.75
21
8.5
31
0
0
LINE
8
0
62
4
10
85.75
20
8.5
30
0
11
85.75
21
6
31
0
0
LINE
8
0
62
4
10
85.75
20
6
30
0
11
87.25
21
6
31
0
0
LINE
8
0
62
4
10
85.75
20
7.25
30
0
11
87
21
7.25
31
0
0
LINE
8
0
62
4
10
88
20
8.5
30
0
11
88
21
6
31
0
0
LINE
8
0
62
4
10
88
20
6
30
0
11
89.5
21
6
31
0
0
ENDSEC
0
EOF
