0
SECTION
2
HEADER
9
$ACADVER
1
AC1009
9
$INSUNITS
70
4
0
ENDSEC
0
SECTION
2
ENTITIES
0
LINE
8
0
62
7
10
6
20
0
30
0
11
174
21
0
31
0
0
LINE
8
0
62
7
10
180
20
6
30
0
11
180
21
94
31
0
0
LINE
8
0
62
7
10
174
20
100
30
0
11
6
21
100
31
0
0
LINE
8
0
62
7
10
0
20
94
30
0
11
0
21
6
31
0
0
ARC
8
0
62
7
10
6
20
6
30
0
40
6
50
180
51
270
0
ARC
8
0
62
7
10
174
20
6
30
0
40
6
50
270
51
360
0
ARC
8
0
62
7
10
174
20
94
30
0
40
6
50
0
51
90
0
ARC
8
0
62
7
10
6
20
94
30
0
40
6
50
90
51
180
0
CIRCLE
8
0
62
7
10
6
20
6
30
0
40
1.7
0
CIRCLE
8
0
62
7
10
6
20
94
30
0
40
1.7
0
CIRCLE
8
0
62
7
10
174
20
6
30
0
40
1.7
0
CIRCLE
8
0
62
7
10
174
20
94
30
0
40
1.7
0
LINE
8
0
62
7
10
24
20
24
30
0
11
29
21
24
31
0
0
LINE
8
0
62
7
10
31
20
26
30
0
11
31
21
26
31
0
0
LINE
8
0
62
7
10
29
20
28
30
0
11
24
21
28
31
0
0
LINE
8
0
62
7
10
22
20
26
30
0
11
22
21
26
31
0
0
ARC
8
0
62
7
10
24
20
26
30
0
40
2
50
180
51
270
0
ARC
8
0
62
7
10
29
20
26
30
0
40
2
50
270
51
360
0
ARC
8
0
62
7
10
29
20
26
30
0
40
2
50
0
51
90
0
ARC
8
0
62
7
10
24
20
26
30
0
40
2
50
90
51
180
0
LINE
8
0
62
7
10
40
20
24
30
0
11
45
21
24
31
0
0
LINE
8
0
62
7
10
47
20
26
30
0
11
47
21
26
31
0
0
LINE
8
0
62
7
10
45
20
28
30
0
11
40
21
28
31
0
0
LINE
8
0
62
7
10
38
20
26
30
0
11
38
21
26
31
0
0
ARC
8
0
62
7
10
40
20
26
30
0
40
2
50
180
51
270
0
ARC
8
0
62
7
10
45
20
26
30
0
40
2
50
270
51
360
0
ARC
8
0
62
7
10
45
20
26
30
0
40
2
50
0
51
90
0
ARC
8
0
62
7
10
40
20
26
30
0
40
2
50
90
51
180
0
LINE
8
0
62
7
10
56
20
24
30
0
11
61
21
24
31
0
0
LINE
8
0
62
7
10
63
20
26
30
0
11
63
21
26
31
0
0
LINE
8
0
62
7
10
61
20
28
30
0
11
56
21
28
31
0
0
LINE
8
0
62
7
10
54
20
26
30
0
11
54
21
26
31
0
0
ARC
8
0
62
7
10
56
20
26
30
0
40
2
50
180
51
270
0
ARC
8
0
62
7
10
61
20
26
30
0
40
2
50
270
51
360
0
ARC
8
0
62
7
10
61
20
26
30
0
40
2
50
0
51
90
0
ARC
8
0
62
7
10
56
20
26
30
0
40
2
50
90
51
180
0
LINE
8
0
62
7
10
72
20
24
30
0
11
77
21
24
31
0
0
LINE
8
0
62
7
10
79
20
26
30
0
11
79
21
26
31
0
0
LINE
8
0
62
7
10
77
20
28
30
0
11
72
21
28
31
0
0
LINE
8
0
62
7
10
70
20
26
30
0
11
70
21
26
31
0
0
ARC
8
0
62
7
10
72
20
26
30
0
40
2
50
180
51
270
0
ARC
8
0
62
7
10
77
20
26
30
0
40
2
50
270
51
360
0
ARC
8
0
62
7
10
77
20
26
30
0
40
2
50
0
51
90
0
ARC
8
0
62
7
10
72
20
26
30
0
40
2
50
90
51
180
0
LINE
8
0
62
7
10
88
20
24
30
0
11
93
21
24
31
0
0
LINE
8
0
62
7
10
95
20
26
30
0
11
95
21
26
31
0
0
LINE
8
0
62
7
10
93
20
28
30
0
11
88
21
28
31
0
0
LINE
8
0
62
7
10
86
20
26
30
0
11
86
21
26
31
0
0
ARC
8
0
62
7
10
88
20
26
30
0
40
2
50
180
51
270
0
ARC
8
0
62
7
10
93
20
26
30
0
40
2
50
270
51
360
0
ARC
8
0
62
7
10
93
20
26
30
0
40
2
50
0
51
90
0
ARC
8
0
62
7
10
88
20
26
30
0
40
2
50
90
51
180
0
LINE
8
0
62
7
10
104
20
24
30
0
11
109
21
24
31
0
0
LINE
8
0
62
7
10
111
20
26
30
0
11
111
21
26
31
0
0
LINE
8
0
62
7
10
109
20
28
30
0
11
104
21
28
31
0
0
LINE
8
0
62
7
10
102
20
26
30
0
11
102
21
26
31
0
0
ARC
8
0
62
7
10
104
20
26
30
0
40
2
50
180
51
270
0
ARC
8
0
62
7
10
109
20
26
30
0
40
2
50
270
51
360
0
ARC
8
0
62
7
10
109
20
26
30
0
40
2
50
0
51
90
0
ARC
8
0
62
7
10
104
20
26
30
0
40
2
50
90
51
180
0
LINE
8
0
62
7
10
120
20
24
30
0
11
125
21
24
31
0
0
LINE
8
0
62
7
10
127
20
26
30
0
11
127
21
26
31
0
0
LINE
8
0
62
7
10
125
20
28
30
0
11
120
21
28
31
0
0
LINE
8
0
62
7
10
118
20
26
30
0
11
118
21
26
31
0
0
ARC
8
0
62
7
10
120
20
26
30
0
40
2
50
180
51
270
0
ARC
8
0
62
7
10
125
20
26
30
0
40
2
50
270
51
360
0
ARC
8
0
62
7
10
125
20
26
30
0
40
2
50
0
51
90
0
ARC
8
0
62
7
10
120
20
26
30
0
40
2
50
90
51
180
0
LINE
8
0
62
7
10
136
20
24
30
0
11
141
21
24
31
0
0
LINE
8
0
62
7
10
143
20
26
30
0
11
143
21
26
31
0
0
LINE
8
0
62
7
10
141
20
28
30
0
11
136
21
28
31
0
0
LINE
8
0
62
7
10
134
20
26
30
0
11
134
21
26
31
0
0
ARC
8
0
62
7
10
136
20
26
30
0
40
2
50
180
51
270
0
ARC
8
0
62
7
10
141
20
26
30
0
40
2
50
270
51
360
0
ARC
8
0
62
7
10
141
20
26
30
0
40
2
50
0
51
90
0
ARC
8
0
62
7
10
136
20
26
30
0
40
2
50
90
51
180
0
LINE
8
0
62
7
10
152
20
24
30
0
11
157
21
24
31
0
0
LINE
8
0
62
7
10
159
20
26
30
0
11
159
21
26
31
0
0
LINE
8
0
62
7
10
157
20
28
30
0
11
152
21
28
31
0
0
LINE
8
0
62
7
10
150
20
26
30
0
11
150
21
26
31
0
0
ARC
8
0
62
7
10
152
20
26
30
0
40
2
50
180
51
270
0
ARC
8
0
62
7
10
157
20
26
30
0
40
2
50
270
51
360
0
ARC
8
0
62
7
10
157
20
26
30
0
40
2
50
0
51
90
0
ARC
8
0
62
7
10
152
20
26
30
0
40
2
50
90
51
180
0
LINE
8
0
62
7
10
24
20
35
30
0
11
29
21
35
31
0
0
LINE
8
0
62
7
10
31
20
37
30
0
11
31
21
37
31
0
0
LINE
8
0
62
7
10
29
20
39
30
0
11
24
21
39
31
0
0
LINE
8
0
62
7
10
22
20
37
30
0
11
22
21
37
31
0
0
ARC
8
0
62
7
10
24
20
37
30
0
40
2
50
180
51
270
0
ARC
8
0
62
7
10
29
20
37
30
0
40
2
50
270
51
360
0
ARC
8
0
62
7
10
29
20
37
30
0
40
2
50
0
51
90
0
ARC
8
0
62
7
10
24
20
37
30
0
40
2
50
90
51
180
0
LINE
8
0
62
7
10
40
20
35
30
0
11
45
21
35
31
0
0
LINE
8
0
62
7
10
47
20
37
30
0
11
47
21
37
31
0
0
LINE
8
0
62
7
10
45
20
39
30
0
11
40
21
39
31
0
0
LINE
8
0
62
7
10
38
20
37
30
0
11
38
21
37
31
0
0
ARC
8
0
62
7
10
40
20
37
30
0
40
2
50
180
51
270
0
ARC
8
0
62
7
10
45
20
37
30
0
40
2
50
270
51
360
0
ARC
8
0
62
7
10
45
20
37
30
0
40
2
50
0
51
90
0
ARC
8
0
62
7
10
40
20
37
30
0
40
2
50
90
51
180
0
LINE
8
0
62
7
10
56
20
35
30
0
11
61
21
35
31
0
0
LINE
8
0
62
7
10
63
20
37
30
0
11
63
21
37
31
0
0
LINE
8
0
62
7
10
61
20
39
30
0
11
56
21
39
31
0
0
LINE
8
0
62
7
10
54
20
37
30
0
11
54
21
37
31
0
0
ARC
8
0
62
7
10
56
20
37
30
0
40
2
50
180
51
270
0
ARC
8
0
62
7
10
61
20
37
30
0
40
2
50
270
51
360
0
ARC
8
0
62
7
10
61
20
37
30
0
40
2
50
0
51
90
0
ARC
8
0
62
7
10
56
20
37
30
0
40
2
50
90
51
180
0
LINE
8
0
62
7
10
72
20
35
30
0
11
77
21
35
31
0
0
LINE
8
0
62
7
10
79
20
37
30
0
11
79
21
37
31
0
0
LINE
8
0
62
7
10
77
20
39
30
0
11
72
21
39
31
0
0
LINE
8
0
62
7
10
70
20
37
30
0
11
70
21
37
31
0
0
ARC
8
0
62
7
10
72
20
37
30
0
40
2
50
180
51
270
0
ARC
8
0
62
7
10
77
20
37
30
0
40
2
50
270
51
360
0
ARC
8
0
62
7
10
77
20
37
30
0
40
2
50
0
51
90
0
ARC
8
0
62
7
10
72
20
37
30
0
40
2
50
90
51
180
0
LINE
8
0
62
7
10
88
20
35
30
0
11
93
21
35
31
0
0
LINE
8
0
62
7
10
95
20
37
30
0
11
95
21
37
31
0
0
LINE
8
0
62
7
10
93
20
39
30
0
11
88
21
39
31
0
0
LINE
8
0
62
7
10
86
20
37
30
0
11
86
21
37
31
0
0
ARC
8
0
62
7
10
88
20
37
30
0
40
2
50
180
51
270
0
ARC
8
0
62
7
10
93
20
37
30
0
40
2
50
270
51
360
0
ARC
8
0
62
7
10
93
20
37
30
0
40
2
50
0
51
90
0
ARC
8
0
62
7
10
88
20
37
30
0
40
2
50
90
51
180
0
LINE
8
0
62
7
10
104
20
35
30
0
11
109
21
35
31
0
0
LINE
8
0
62
7
10
111
20
37
30
0
11
111
21
37
31
0
0
LINE
8
0
62
7
10
109
20
39
30
0
11
104
21
39
31
0
0
LINE
8
0
62
7
10
102
20
37
30
0
11
102
21
37
31
0
0
ARC
8
0
62
7
10
104
20
37
30
0
40
2
50
180
51
270
0
ARC
8
0
62
7
10
109
20
37
30
0
40
2
50
270
51
360
0
ARC
8
0
62
7
10
109
20
37
30
0
40
2
50
0
51
90
0
ARC
8
0
62
7
10
104
20
37
30
0
40
2
50
90
51
180
0
LINE
8
0
62
7
10
120
20
35
30
0
11
125
21
35
31
0
0
LINE
8
0
62
7
10
127
20
37
30
0
11
127
21
37
31
0
0
LINE
8
0
62
7
10
125
20
39
30
0
11
120
21
39
31
0
0
LINE
8
0
62
7
10
118
20
37
30
0
11
118
21
37
31
0
0
ARC
8
0
62
7
10
120
20
37
30
0
40
2
50
180
51
270
0
ARC
8
0
62
7
10
125
20
37
30
0
40
2
50
270
51
360
0
ARC
8
0
62
7
10
125
20
37
30
0
40
2
50
0
51
90
0
ARC
8
0
62
7
10
120
20
37
30
0
40
2
50
90
51
180
0
LINE
8
0
62
7
10
136
20
35
30
0
11
141
21
35
31
0
0
LINE
8
0
62
7
10
143
20
37
30
0
11
143
21
37
31
0
0
LINE
8
0
62
7
10
141
20
39
30
0
11
136
21
39
31
0
0
LINE
8
0
62
7
10
134
20
37
30
0
11
134
21
37
31
0
0
ARC
8
0
62
7
10
136
20
37
30
0
40
2
50
180
51
270
0
ARC
8
0
62
7
10
141
20
37
30
0
40
2
50
270
51
360
0
ARC
8
0
62
7
10
141
20
37
30
0
40
2
50
0
51
90
0
ARC
8
0
62
7
10
136
20
37
30
0
40
2
50
90
51
180
0
LINE
8
0
62
7
10
152
20
35
30
0
11
157
21
35
31
0
0
LINE
8
0
62
7
10
159
20
37
30
0
11
159
21
37
31
0
0
LINE
8
0
62
7
10
157
20
39
30
0
11
152
21
39
31
0
0
LINE
8
0
62
7
10
150
20
37
30
0
11
150
21
37
31
0
0
ARC
8
0
62
7
10
152
20
37
30
0
40
2
50
180
51
270
0
ARC
8
0
62
7
10
157
20
37
30
0
40
2
50
270
51
360
0
ARC
8
0
62
7
10
157
20
37
30
0
40
2
50
0
51
90
0
ARC
8
0
62
7
10
152
20
37
30
0
40
2
50
90
51
180
0
LINE
8
0
62
7
10
24
20
46
30
0
11
29
21
46
31
0
0
LINE
8
0
62
7
10
31
20
48
30
0
11
31
21
48
31
0
0
LINE
8
0
62
7
10
29
20
50
30
0
11
24
21
50
31
0
0
LINE
8
0
62
7
10
22
20
48
30
0
11
22
21
48
31
0
0
ARC
8
0
62
7
10
24
20
48
30
0
40
2
50
180
51
270
0
ARC
8
0
62
7
10
29
20
48
30
0
40
2
50
270
51
360
0
ARC
8
0
62
7
10
29
20
48
30
0
40
2
50
0
51
90
0
ARC
8
0
62
7
10
24
20
48
30
0
40
2
50
90
51
180
0
LINE
8
0
62
7
10
40
20
46
30
0
11
45
21
46
31
0
0
LINE
8
0
62
7
10
47
20
48
30
0
11
47
21
48
31
0
0
LINE
8
0
62
7
10
45
20
50
30
0
11
40
21
50
31
0
0
LINE
8
0
62
7
10
38
20
48
30
0
11
38
21
48
31
0
0
ARC
8
0
62
7
10
40
20
48
30
0
40
2
50
180
51
270
0
ARC
8
0
62
7
10
45
20
48
30
0
40
2
50
270
51
360
0
ARC
8
0
62
7
10
45
20
48
30
0
40
2
50
0
51
90
0
ARC
8
0
62
7
10
40
20
48
30
0
40
2
50
90
51
180
0
LINE
8
0
62
7
10
56
20
46
30
0
11
61
21
46
31
0
0
LINE
8
0
62
7
10
63
20
48
30
0
11
63
21
48
31
0
0
LINE
8
0
62
7
10
61
20
50
30
0
11
56
21
50
31
0
0
LINE
8
0
62
7
10
54
20
48
30
0
11
54
21
48
31
0
0
ARC
8
0
62
7
10
56
20
48
30
0
40
2
50
180
51
270
0
ARC
8
0
62
7
10
61
20
48
30
0
40
2
50
270
51
360
0
ARC
8
0
62
7
10
61
20
48
30
0
40
2
50
0
51
90
0
ARC
8
0
62
7
10
56
20
48
30
0
40
2
50
90
51
180
0
LINE
8
0
62
7
10
72
20
46
30
0
11
77
21
46
31
0
0
LINE
8
0
62
7
10
79
20
48
30
0
11
79
21
48
31
0
0
LINE
8
0
62
7
10
77
20
50
30
0
11
72
21
50
31
0
0
LINE
8
0
62
7
10
70
20
48
30
0
11
70
21
48
31
0
0
ARC
8
0
62
7
10
72
20
48
30
0
40
2
50
180
51
270
0
ARC
8
0
62
7
10
77
20
48
30
0
40
2
50
270
51
360
0
ARC
8
0
62
7
10
77
20
48
30
0
40
2
50
0
51
90
0
ARC
8
0
62
7
10
72
20
48
30
0
40
2
50
90
51
180
0
LINE
8
0
62
7
10
88
20
46
30
0
11
93
21
46
31
0
0
LINE
8
0
62
7
10
95
20
48
30
0
11
95
21
48
31
0
0
LINE
8
0
62
7
10
93
20
50
30
0
11
88
21
50
31
0
0
LINE
8
0
62
7
10
86
20
48
30
0
11
86
21
48
31
0
0
ARC
8
0
62
7
10
88
20
48
30
0
40
2
50
180
51
270
0
ARC
8
0
62
7
10
93
20
48
30
0
40
2
50
270
51
360
0
ARC
8
0
62
7
10
93
20
48
30
0
40
2
50
0
51
90
0
ARC
8
0
62
7
10
88
20
48
30
0
40
2
50
90
51
180
0
LINE
8
0
62
7
10
104
20
46
30
0
11
109
21
46
31
0
0
LINE
8
0
62
7
10
111
20
48
30
0
11
111
21
48
31
0
0
LINE
8
0
62
7
10
109
20
50
30
0
11
104
21
50
31
0
0
LINE
8
0
62
7
10
102
20
48
30
0
11
102
21
48
31
0
0
ARC
8
0
62
7
10
104
20
48
30
0
40
2
50
180
51
270
0
ARC
8
0
62
7
10
109
20
48
30
0
40
2
50
270
51
360
0
ARC
8
0
62
7
10
109
20
48
30
0
40
2
50
0
51
90
0
ARC
8
0
62
7
10
104
20
48
30
0
40
2
50
90
51
180
0
LINE
8
0
62
7
10
120
20
46
30
0
11
125
21
46
31
0
0
LINE
8
0
62
7
10
127
20
48
30
0
11
127
21
48
31
0
0
LINE
8
0
62
7
10
125
20
50
30
0
11
120
21
50
31
0
0
LINE
8
0
62
7
10
118
20
48
30
0
11
118
21
48
31
0
0
ARC
8
0
62
7
10
120
20
48
30
0
40
2
50
180
51
270
0
ARC
8
0
62
7
10
125
20
48
30
0
40
2
50
270
51
360
0
ARC
8
0
62
7
10
125
20
48
30
0
40
2
50
0
51
90
0
ARC
8
0
62
7
10
120
20
48
30
0
40
2
50
90
51
180
0
LINE
8
0
62
7
10
136
20
46
30
0
11
141
21
46
31
0
0
LINE
8
0
62
7
10
143
20
48
30
0
11
143
21
48
31
0
0
LINE
8
0
62
7
10
141
20
50
30
0
11
136
21
50
31
0
0
LINE
8
0
62
7
10
134
20
48
30
0
11
134
21
48
31
0
0
ARC
8
0
62
7
10
136
20
48
30
0
40
2
50
180
51
270
0
ARC
8
0
62
7
10
141
20
48
30
0
40
2
50
270
51
360
0
ARC
8
0
62
7
10
141
20
48
30
0
40
2
50
0
51
90
0
ARC
8
0
62
7
10
136
20
48
30
0
40
2
50
90
51
180
0
LINE
8
0
62
7
10
152
20
46
30
0
11
157
21
46
31
0
0
LINE
8
0
62
7
10
159
20
48
30
0
11
159
21
48
31
0
0
LINE
8
0
62
7
10
157
20
50
30
0
11
152
21
50
31
0
0
LINE
8
0
62
7
10
150
20
48
30
0
11
150
21
48
31
0
0
ARC
8
0
62
7
10
152
20
48
30
0
40
2
50
180
51
270
0
ARC
8
0
62
7
10
157
20
48
30
0
40
2
50
270
51
360
0
ARC
8
0
62
7
10
157
20
48
30
0
40
2
50
0
51
90
0
ARC
8
0
62
7
10
152
20
48
30
0
40
2
50
90
51
180
0
LINE
8
0
62
7
10
24
20
57
30
0
11
29
21
57
31
0
0
LINE
8
0
62
7
10
31
20
59
30
0
11
31
21
59
31
0
0
LINE
8
0
62
7
10
29
20
61
30
0
11
24
21
61
31
0
0
LINE
8
0
62
7
10
22
20
59
30
0
11
22
21
59
31
0
0
ARC
8
0
62
7
10
24
20
59
30
0
40
2
50
180
51
270
0
ARC
8
0
62
7
10
29
20
59
30
0
40
2
50
270
51
360
0
ARC
8
0
62
7
10
29
20
59
30
0
40
2
50
0
51
90
0
ARC
8
0
62
7
10
24
20
59
30
0
40
2
50
90
51
180
0
LINE
8
0
62
7
10
40
20
57
30
0
11
45
21
57
31
0
0
LINE
8
0
62
7
10
47
20
59
30
0
11
47
21
59
31
0
0
LINE
8
0
62
7
10
45
20
61
30
0
11
40
21
61
31
0
0
LINE
8
0
62
7
10
38
20
59
30
0
11
38
21
59
31
0
0
ARC
8
0
62
7
10
40
20
59
30
0
40
2
50
180
51
270
0
ARC
8
0
62
7
10
45
20
59
30
0
40
2
50
270
51
360
0
ARC
8
0
62
7
10
45
20
59
30
0
40
2
50
0
51
90
0
ARC
8
0
62
7
10
40
20
59
30
0
40
2
50
90
51
180
0
LINE
8
0
62
7
10
56
20
57
30
0
11
61
21
57
31
0
0
LINE
8
0
62
7
10
63
20
59
30
0
11
63
21
59
31
0
0
LINE
8
0
62
7
10
61
20
61
30
0
11
56
21
61
31
0
0
LINE
8
0
62
7
10
54
20
59
30
0
11
54
21
59
31
0
0
ARC
8
0
62
7
10
56
20
59
30
0
40
2
50
180
51
270
0
ARC
8
0
62
7
10
61
20
59
30
0
40
2
50
270
51
360
0
ARC
8
0
62
7
10
61
20
59
30
0
40
2
50
0
51
90
0
ARC
8
0
62
7
10
56
20
59
30
0
40
2
50
90
51
180
0
LINE
8
0
62
7
10
72
20
57
30
0
11
77
21
57
31
0
0
LINE
8
0
62
7
10
79
20
59
30
0
11
79
21
59
31
0
0
LINE
8
0
62
7
10
77
20
61
30
0
11
72
21
61
31
0
0
LINE
8
0
62
7
10
70
20
59
30
0
11
70
21
59
31
0
0
ARC
8
0
62
7
10
72
20
59
30
0
40
2
50
180
51
270
0
ARC
8
0
62
7
10
77
20
59
30
0
40
2
50
270
51
360
0
ARC
8
0
62
7
10
77
20
59
30
0
40
2
50
0
51
90
0
ARC
8
0
62
7
10
72
20
59
30
0
40
2
50
90
51
180
0
LINE
8
0
62
7
10
88
20
57
30
0
11
93
21
57
31
0
0
LINE
8
0
62
7
10
95
20
59
30
0
11
95
21
59
31
0
0
LINE
8
0
62
7
10
93
20
61
30
0
11
88
21
61
31
0
0
LINE
8
0
62
7
10
86
20
59
30
0
11
86
21
59
31
0
0
ARC
8
0
62
7
10
88
20
59
30
0
40
2
50
180
51
270
0
ARC
8
0
62
7
10
93
20
59
30
0
40
2
50
270
51
360
0
ARC
8
0
62
7
10
93
20
59
30
0
40
2
50
0
51
90
0
ARC
8
0
62
7
10
88
20
59
30
0
40
2
50
90
51
180
0
LINE
8
0
62
7
10
104
20
57
30
0
11
109
21
57
31
0
0
LINE
8
0
62
7
10
111
20
59
30
0
11
111
21
59
31
0
0
LINE
8
0
62
7
10
109
20
61
30
0
11
104
21
61
31
0
0
LINE
8
0
62
7
10
102
20
59
30
0
11
102
21
59
31
0
0
ARC
8
0
62
7
10
104
20
59
30
0
40
2
50
180
51
270
0
ARC
8
0
62
7
10
109
20
59
30
0
40
2
50
270
51
360
0
ARC
8
0
62
7
10
109
20
59
30
0
40
2
50
0
51
90
0
ARC
8
0
62
7
10
104
20
59
30
0
40
2
50
90
51
180
0
LINE
8
0
62
7
10
120
20
57
30
0
11
125
21
57
31
0
0
LINE
8
0
62
7
10
127
20
59
30
0
11
127
21
59
31
0
0
LINE
8
0
62
7
10
125
20
61
30
0
11
120
21
61
31
0
0
LINE
8
0
62
7
10
118
20
59
30
0
11
118
21
59
31
0
0
ARC
8
0
62
7
10
120
20
59
30
0
40
2
50
180
51
270
0
ARC
8
0
62
7
10
125
20
59
30
0
40
2
50
270
51
360
0
ARC
8
0
62
7
10
125
20
59
30
0
40
2
50
0
51
90
0
ARC
8
0
62
7
10
120
20
59
30
0
40
2
50
90
51
180
0
LINE
8
0
62
7
10
136
20
57
30
0
11
141
21
57
31
0
0
LINE
8
0
62
7
10
143
20
59
30
0
11
143
21
59
31
0
0
LINE
8
0
62
7
10
141
20
61
30
0
11
136
21
61
31
0
0
LINE
8
0
62
7
10
134
20
59
30
0
11
134
21
59
31
0
0
ARC
8
0
62
7
10
136
20
59
30
0
40
2
50
180
51
270
0
ARC
8
0
62
7
10
141
20
59
30
0
40
2
50
270
51
360
0
ARC
8
0
62
7
10
141
20
59
30
0
40
2
50
0
51
90
0
ARC
8
0
62
7
10
136
20
59
30
0
40
2
50
90
51
180
0
LINE
8
0
62
7
10
152
20
57
30
0
11
157
21
57
31
0
0
LINE
8
0
62
7
10
159
20
59
30
0
11
159
21
59
31
0
0
LINE
8
0
62
7
10
157
20
61
30
0
11
152
21
61
31
0
0
LINE
8
0
62
7
10
150
20
59
30
0
11
150
21
59
31
0
0
ARC
8
0
62
7
10
152
20
59
30
0
40
2
50
180
51
270
0
ARC
8
0
62
7
10
157
20
59
30
0
40
2
50
270
51
360
0
ARC
8
0
62
7
10
157
20
59
30
0
40
2
50
0
51
90
0
ARC
8
0
62
7
10
152
20
59
30
0
40
2
50
90
51
180
0
LINE
8
0
62
7
10
24
20
68
30
0
11
29
21
68
31
0
0
LINE
8
0
62
7
10
31
20
70
30
0
11
31
21
70
31
0
0
LINE
8
0
62
7
10
29
20
72
30
0
11
24
21
72
31
0
0
LINE
8
0
62
7
10
22
20
70
30
0
11
22
21
70
31
0
0
ARC
8
0
62
7
10
24
20
70
30
0
40
2
50
180
51
270
0
ARC
8
0
62
7
10
29
20
70
30
0
40
2
50
270
51
360
0
ARC
8
0
62
7
10
29
20
70
30
0
40
2
50
0
51
90
0
ARC
8
0
62
7
10
24
20
70
30
0
40
2
50
90
51
180
0
LINE
8
0
62
7
10
40
20
68
30
0
11
45
21
68
31
0
0
LINE
8
0
62
7
10
47
20
70
30
0
11
47
21
70
31
0
0
LINE
8
0
62
7
10
45
20
72
30
0
11
40
21
72
31
0
0
LINE
8
0
62
7
10
38
20
70
30
0
11
38
21
70
31
0
0
ARC
8
0
62
7
10
40
20
70
30
0
40
2
50
180
51
270
0
ARC
8
0
62
7
10
45
20
70
30
0
40
2
50
270
51
360
0
ARC
8
0
62
7
10
45
20
70
30
0
40
2
50
0
51
90
0
ARC
8
0
62
7
10
40
20
70
30
0
40
2
50
90
51
180
0
LINE
8
0
62
7
10
56
20
68
30
0
11
61
21
68
31
0
0
LINE
8
0
62
7
10
63
20
70
30
0
11
63
21
70
31
0
0
LINE
8
0
62
7
10
61
20
72
30
0
11
56
21
72
31
0
0
LINE
8
0
62
7
10
54
20
70
30
0
11
54
21
70
31
0
0
ARC
8
0
62
7
10
56
20
70
30
0
40
2
50
180
51
270
0
ARC
8
0
62
7
10
61
20
70
30
0
40
2
50
270
51
360
0
ARC
8
0
62
7
10
61
20
70
30
0
40
2
50
0
51
90
0
ARC
8
0
62
7
10
56
20
70
30
0
40
2
50
90
51
180
0
LINE
8
0
62
7
10
72
20
68
30
0
11
77
21
68
31
0
0
LINE
8
0
62
7
10
79
20
70
30
0
11
79
21
70
31
0
0
LINE
8
0
62
7
10
77
20
72
30
0
11
72
21
72
31
0
0
LINE
8
0
62
7
10
70
20
70
30
0
11
70
21
70
31
0
0
ARC
8
0
62
7
10
72
20
70
30
0
40
2
50
180
51
270
0
ARC
8
0
62
7
10
77
20
70
30
0
40
2
50
270
51
360
0
ARC
8
0
62
7
10
77
20
70
30
0
40
2
50
0
51
90
0
ARC
8
0
62
7
10
72
20
70
30
0
40
2
50
90
51
180
0
LINE
8
0
62
7
10
88
20
68
30
0
11
93
21
68
31
0
0
LINE
8
0
62
7
10
95
20
70
30
0
11
95
21
70
31
0
0
LINE
8
0
62
7
10
93
20
72
30
0
11
88
21
72
31
0
0
LINE
8
0
62
7
10
86
20
70
30
0
11
86
21
70
31
0
0
ARC
8
0
62
7
10
88
20
70
30
0
40
2
50
180
51
270
0
ARC
8
0
62
7
10
93
20
70
30
0
40
2
50
270
51
360
0
ARC
8
0
62
7
10
93
20
70
30
0
40
2
50
0
51
90
0
ARC
8
0
62
7
10
88
20
70
30
0
40
2
50
90
51
180
0
LINE
8
0
62
7
10
104
20
68
30
0
11
109
21
68
31
0
0
LINE
8
0
62
7
10
111
20
70
30
0
11
111
21
70
31
0
0
LINE
8
0
62
7
10
109
20
72
30
0
11
104
21
72
31
0
0
LINE
8
0
62
7
10
102
20
70
30
0
11
102
21
70
31
0
0
ARC
8
0
62
7
10
104
20
70
30
0
40
2
50
180
51
270
0
ARC
8
0
62
7
10
109
20
70
30
0
40
2
50
270
51
360
0
ARC
8
0
62
7
10
109
20
70
30
0
40
2
50
0
51
90
0
ARC
8
0
62
7
10
104
20
70
30
0
40
2
50
90
51
180
0
LINE
8
0
62
7
10
120
20
68
30
0
11
125
21
68
31
0
0
LINE
8
0
62
7
10
127
20
70
30
0
11
127
21
70
31
0
0
LINE
8
0
62
7
10
125
20
72
30
0
11
120
21
72
31
0
0
LINE
8
0
62
7
10
118
20
70
30
0
11
118
21
70
31
0
0
ARC
8
0
62
7
10
120
20
70
30
0
40
2
50
180
51
270
0
ARC
8
0
62
7
10
125
20
70
30
0
40
2
50
270
51
360
0
ARC
8
0
62
7
10
125
20
70
30
0
40
2
50
0
51
90
0
ARC
8
0
62
7
10
120
20
70
30
0
40
2
50
90
51
180
0
LINE
8
0
62
7
10
136
20
68
30
0
11
141
21
68
31
0
0
LINE
8
0
62
7
10
143
20
70
30
0
11
143
21
70
31
0
0
LINE
8
0
62
7
10
141
20
72
30
0
11
136
21
72
31
0
0
LINE
8
0
62
7
10
134
20
70
30
0
11
134
21
70
31
0
0
ARC
8
0
62
7
10
136
20
70
30
0
40
2
50
180
51
270
0
ARC
8
0
62
7
10
141
20
70
30
0
40
2
50
270
51
360
0
ARC
8
0
62
7
10
141
20
70
30
0
40
2
50
0
51
90
0
ARC
8
0
62
7
10
136
20
70
30
0
40
2
50
90
51
180
0
LINE
8
0
62
7
10
152
20
68
30
0
11
157
21
68
31
0
0
LINE
8
0
62
7
10
159
20
70
30
0
11
159
21
70
31
0
0
LINE
8
0
62
7
10
157
20
72
30
0
11
152
21
72
31
0
0
LINE
8
0
62
7
10
150
20
70
30
0
11
150
21
70
31
0
0
ARC
8
0
62
7
10
152
20
70
30
0
40
2
50
180
51
270
0
ARC
8
0
62
7
10
157
20
70
30
0
40
2
50
270
51
360
0
ARC
8
0
62
7
10
157
20
70
30
0
40
2
50
0
51
90
0
ARC
8
0
62
7
10
152
20
70
30
0
40
2
50
90
51
180
0
LINE
8
0
62
4
10
64
20
89
30
0
11
65.2
21
85
31
0
0
LINE
8
0
62
4
10
65.2
20
85
30
0
11
66.4
21
89
31
0
0
LINE
8
0
62
4
10
70
20
89
30
0
11
67.6
21
89
31
0
0
LINE
8
0
62
4
10
67.6
20
89
30
0
11
67.6
21
85
31
0
0
LINE
8
0
62
4
10
67.6
20
85
30
0
11
70
21
85
31
0
0
LINE
8
0
62
4
10
67.6
20
87
30
0
11
69.6
21
87
31
0
0
LINE
8
0
62
4
10
71.2
20
85
30
0
11
71.2
21
89
31
0
0
LINE
8
0
62
4
10
71.2
20
89
30
0
11
73.6
21
85
31
0
0
LINE
8
0
62
4
10
73.6
20
85
30
0
11
73.6
21
89
31
0
0
LINE
8
0
62
4
10
74.8
20
89
30
0
11
77.2
21
89
31
0
0
LINE
8
0
62
4
10
76
20
89
30
0
11
76
21
85
31
0
0
LINE
8
0
62
4
10
78.4
20
89
30
0
11
80.8
21
89
31
0
0
LINE
8
0
62
4
10
79.6
20
89
30
0
11
79.6
21
85
31
0
0
LINE
8
0
62
4
10
78.4
20
85
30
0
11
80.8
21
85
31
0
0
LINE
8
0
62
4
10
82
20
89
30
0
11
82
21
85
31
0
0
LINE
8
0
62
4
10
82
20
85
30
0
11
84.4
21
85
31
0
0
LINE
8
0
62
4
10
85.6
20
85
30
0
11
85.6
21
89
31
0
0
LINE
8
0
62
4
10
85.6
20
89
30
0
11
88
21
89
31
0
0
LINE
8
0
62
4
10
88
20
89
30
0
11
88
21
85
31
0
0
LINE
8
0
62
4
10
85.6
20
87
30
0
11
88
21
87
31
0
0
LINE
8
0
62
4
10
89.2
20
89
30
0
11
91.6
21
89
31
0
0
LINE
8
0
62
4
10
90.4
20
89
30
0
11
90.4
21
85
31
0
0
LINE
8
0
62
4
10
92.8
20
89
30
0
11
95.2
21
89
31
0
0
LINE
8
0
62
4
10
94
20
89
30
0
11
94
21
85
31
0
0
LINE
8
0
62
4
10
92.8
20
85
30
0
11
95.2
21
85
31
0
0
LINE
8
0
62
4
10
96.4
20
85
30
0
11
96.4
21
89
31
0
0
LINE
8
0
62
4
10
96.4
20
89
30
0
11
98.8
21
89
31
0
0
LINE
8
0
62
4
10
98.8
20
89
30
0
11
98.8
21
85
31
0
0
LINE
8
0
62
4
10
98.8
20
85
30
0
11
96.4
21
85
31
0
0
LINE
8
0
62
4
10
100
20
85
30
0
11
100
21
89
31
0
0
LINE
8
0
62
4
10
100
20
89
30
0
11
102.4
21
85
31
0
0
LINE
8
0
62
4
10
102.4
20
85
30
0
11
102.4
21
89
31
0
0
LINE
8
0
62
4
10
71
20
9
30
0
11
71
21
11.5
31
0
0
LINE
8
0
62
4
10
71
20
11.5
30
0
11
72.5
21
11.5
31
0
0
LINE
8
0
62
4
10
72.5
20
11.5
30
0
11
72.5
21
10.25
31
0
0
LINE
8
0
62
4
10
72.5
20
10.25
30
0
11
71
21
10.25
31
0
0
LINE
8
0
62
4
10
71.5
20
10.25
30
0
11
72.5
21
9
31
0
0
LINE
8
0
62
4
10
74.75
20
11.5
30
0
11
73.25
21
11.5
31
0
0
LINE
8
0
62
4
10
73.25
20
11.5
30
0
11
73.25
21
9
31
0
0
LINE
8
0
62
4
10
73.25
20
9
30
0
11
74.75
21
9
31
0
0
LINE
8
0
62
4
10
73.25
20
10.25
30
0
11
74.5
21
10.25
31
0
0
LINE
8
0
62
4
10
75.5
20
9
30
0
11
75.5
21
11.5
31
0
0
LINE
8
0
62
4
10
75.5
20
11.5
30
0
11
77
21
11.5
31
0
0
LINE
8
0
62
4
10
77
20
11.5
30
0
11
77
21
9
31
0
0
LINE
8
0
62
4
10
75.5
20
10.25
30
0
11
77
21
10.25
31
0
0
LINE
8
0
62
4
10
77.75
20
9
30
0
11
77.75
21
11.5
31
0
0
LINE
8
0
62
4
10
77.75
20
11.5
30
0
11
79.25
21
11.5
31
0
0
LINE
8
0
62
4
10
79.25
20
11.5
30
0
11
79.25
21
10.25
31
0
0
LINE
8
0
62
4
10
79.25
20
10.25
30
0
11
77.75
21
10.25
31
0
0
LINE
8
0
62
4
10
78.25
20
10.25
30
0
11
79.25
21
9
31
0
0
LINE
8
0
62
4
10
82.25
20
9
30
0
11
82.25
21
11.5
31
0
0
LINE
8
0
62
4
10
82.25
20
11.5
30
0
11
83.75
21
11.5
31
0
0
LINE
8
0
62
4
10
83.75
20
11.5
30
0
11
83.75
21
10.25
31
0
0
LINE
8
0
62
4
10
83.75
20
10.25
30
0
11
82.25
21
10.25
31
0
0
LINE
8
0
62
4
10
84.5
20
9
30
0
11
84.5
21
11.5
31
0
0
LINE
8
0
62
4
10
84.5
20
11.5
30
0
11
86
21
11.5
31
0
0
LINE
8
0
62
4
10
86
20
11.5
30
0
11
86
21
9
31
0
0
LINE
8
0
62
4
10
84.5
20
10.25
30
0
11
86
21
10.25
31
0
0
LINE
8
0
62
4
10
86.75
20
9
30
0
11
86.75
21
11.5
31
0
0
LINE
8
0
62
4
10
86.75
20
11.5
30
0
11
88.25
21
9
31
0
0
LINE
8
0
62
4
10
88.25
20
9
30
0
11
88.25
21
11.5
31
0
0
LINE
8
0
62
4
10
90.5
20
11.5
30
0
11
89
21
11.5
31
0
0
LINE
8
0
62
4
10
89
20
11.5
30
0
11
89
21
9
31
0
0
LINE
8
0
62
4
10
89
20
9
30
0
11
90.5
21
9
31
0
0
LINE
8
0
62
4
10
89
20
10.25
30
0
11
90.25
21
10.25
31
0
0
LINE
8
0
62
4
10
91.25
20
11.5
30
0
11
91.25
21
9
31
0
0
LINE
8
0
62
4
10
91.25
20
9
30
0
11
92.75
21
9
31
0
0
ENDSEC
0
EOF
