0
SECTION
2
HEADER
9
$ACADVER
1
AC1009
9
$INSUNITS
70
4
0
ENDSEC
0
SECTION
2
ENTITIES
0
LINE
8
0
62
7
10
6
20
65
30
0
11
174
21
65
31
0
0
LINE
8
0
62
7
10
180
20
71
30
0
11
180
21
159
31
0
0
LINE
8
0
62
7
10
174
20
165
30
0
11
6
21
165
31
0
0
LINE
8
0
62
7
10
0
20
159
30
0
11
0
21
71
31
0
0
ARC
8
0
62
7
10
6
20
71
30
0
40
6
50
180
51
270
0
ARC
8
0
62
7
10
174
20
71
30
0
40
6
50
270
51
360
0
ARC
8
0
62
7
10
174
20
159
30
0
40
6
50
0
51
90
0
ARC
8
0
62
7
10
6
20
159
30
0
40
6
50
90
51
180
0
CIRCLE
8
0
62
7
10
6
20
71
30
0
40
1.7
0
CIRCLE
8
0
62
7
10
6
20
159
30
0
40
1.7
0
CIRCLE
8
0
62
7
10
174
20
71
30
0
40
1.7
0
CIRCLE
8
0
62
7
10
174
20
159
30
0
40
1.7
0
LINE
8
0
62
4
10
15
20
148
30
0
11
15
21
153
31
0
0
LINE
8
0
62
4
10
15
20
153
30
0
11
18
21
153
31
0
0
LINE
8
0
62
4
10
15
20
150.5
30
0
11
17.5
21
150.5
31
0
0
LINE
8
0
62
4
10
19.5
20
153
30
0
11
22.5
21
153
31
0
0
LINE
8
0
62
4
10
21
20
153
30
0
11
21
21
148
31
0
0
LINE
8
0
62
4
10
19.5
20
148
30
0
11
22.5
21
148
31
0
0
LINE
8
0
62
4
10
27
20
153
30
0
11
24
21
153
31
0
0
LINE
8
0
62
4
10
24
20
153
30
0
11
24
21
148
31
0
0
LINE
8
0
62
4
10
24
20
148
30
0
11
27
21
148
31
0
0
LINE
8
0
62
4
10
24
20
150.5
30
0
11
26.5
21
150.5
31
0
0
LINE
8
0
62
4
10
28.5
20
153
30
0
11
28.5
21
148
31
0
0
LINE
8
0
62
4
10
28.5
20
148
30
0
11
31.5
21
148
31
0
0
LINE
8
0
62
4
10
33
20
148
30
0
11
33
21
153
31
0
0
LINE
8
0
62
4
10
33
20
153
30
0
11
35
21
153
31
0
0
LINE
8
0
62
4
10
35
20
153
30
0
11
36
21
152
31
0
0
LINE
8
0
62
4
10
36
20
152
30
0
11
36
21
149
31
0
0
LINE
8
0
62
4
10
36
20
149
30
0
11
35
21
148
31
0
0
LINE
8
0
62
4
10
35
20
148
30
0
11
33
21
148
31
0
0
LINE
8
0
62
4
10
51
20
148
30
0
11
51
21
153
31
0
0
LINE
8
0
62
4
10
51
20
153
30
0
11
54
21
153
31
0
0
LINE
8
0
62
4
10
54
20
153
30
0
11
54
21
148
31
0
0
LINE
8
0
62
4
10
54
20
148
30
0
11
51
21
148
31
0
0
LINE
8
0
62
4
10
56
20
152
30
0
11
57
21
153
31
0
0
LINE
8
0
62
4
10
57
20
153
30
0
11
57
21
148
31
0
0
LINE
8
0
62
4
10
56
20
148
30
0
11
58
21
148
31
0
0
LINE
8
0
62
4
10
15
20
142
30
0
11
165
21
142
31
0
0
LINE
8
0
62
7
10
18
20
103
30
0
11
84
21
103
31
0
0
LINE
8
0
62
7
10
87
20
106
30
0
11
87
21
130
31
0
0
LINE
8
0
62
7
10
84
20
133
30
0
11
18
21
133
31
0
0
LINE
8
0
62
7
10
15
20
130
30
0
11
15
21
106
31
0
0
ARC
8
0
62
7
10
18
20
106
30
0
40
3
50
180
51
270
0
ARC
8
0
62
7
10
84
20
106
30
0
40
3
50
270
51
360
0
ARC
8
0
62
7
10
84
20
130
30
0
40
3
50
0
51
90
0
ARC
8
0
62
7
10
18
20
130
30
0
40
3
50
90
51
180
0
LINE
8
0
62
4
10
34
20
94
30
0
11
34
21
97
31
0
0
LINE
8
0
62
4
10
34
20
97
30
0
11
35.2
21
97
31
0
0
LINE
8
0
62
4
10
35.2
20
97
30
0
11
35.8
21
96.4
31
0
0
LINE
8
0
62
4
10
35.8
20
96.4
30
0
11
35.8
21
94.6
31
0
0
LINE
8
0
62
4
10
35.8
20
94.6
30
0
11
35.2
21
94
31
0
0
LINE
8
0
62
4
10
35.2
20
94
30
0
11
34
21
94
31
0
0
LINE
8
0
62
4
10
36.7
20
97
30
0
11
38.5
21
97
31
0
0
LINE
8
0
62
4
10
37.6
20
97
30
0
11
37.6
21
94
31
0
0
LINE
8
0
62
4
10
36.7
20
94
30
0
11
38.5
21
94
31
0
0
LINE
8
0
62
4
10
41.2
20
97
30
0
11
39.4
21
97
31
0
0
LINE
8
0
62
4
10
39.4
20
97
30
0
11
39.4
21
95.5
31
0
0
LINE
8
0
62
4
10
39.4
20
95.5
30
0
11
41.2
21
95.5
31
0
0
LINE
8
0
62
4
10
41.2
20
95.5
30
0
11
41.2
21
94
31
0
0
LINE
8
0
62
4
10
41.2
20
94
30
0
11
39.4
21
94
31
0
0
LINE
8
0
62
4
10
42.1
20
94
30
0
11
42.1
21
97
31
0
0
LINE
8
0
62
4
10
42.1
20
97
30
0
11
43.9
21
97
31
0
0
LINE
8
0
62
4
10
43.9
20
97
30
0
11
43.9
21
95.5
31
0
0
LINE
8
0
62
4
10
43.9
20
95.5
30
0
11
42.1
21
95.5
31
0
0
LINE
8
0
62
4
10
44.8
20
97
30
0
11
44.8
21
94
31
0
0
LINE
8
0
62
4
10
44.8
20
94
30
0
11
46.6
21
94
31
0
0
LINE
8
0
62
4
10
47.5
20
94
30
0
11
47.5
21
97
31
0
0
LINE
8
0
62
4
10
47.5
20
97
30
0
11
49.3
21
97
31
0
0
LINE
8
0
62
4
10
49.3
20
97
30
0
11
49.3
21
94
31
0
0
LINE
8
0
62
4
10
47.5
20
95.5
30
0
11
49.3
21
95.5
31
0
0
LINE
8
0
62
4
10
50.2
20
97
30
0
11
51.1
21
95.5
31
0
0
LINE
8
0
62
4
10
52
20
97
30
0
11
51.1
21
95.5
31
0
0
LINE
8
0
62
4
10
51.1
20
95.5
30
0
11
51.1
21
94
31
0
0
CIRCLE
8
0
62
7
10
112
20
119
30
0
40
7
0
LINE
8
0
62
4
10
110.3
20
106.4
30
0
11
110.9
21
107
31
0
0
LINE
8
0
62
4
10
110.9
20
107
30
0
11
110.9
21
104
31
0
0
LINE
8
0
62
4
10
110.3
20
104
30
0
11
111.5
21
104
31
0
0
CIRCLE
8
0
62
7
10
133
20
119
30
0
40
7
0
LINE
8
0
62
4
10
131
20
107
30
0
11
132.8
21
107
31
0
0
LINE
8
0
62
4
10
132.8
20
107
30
0
11
132.8
21
105.5
31
0
0
LINE
8
0
62
4
10
132.8
20
105.5
30
0
11
131
21
105.5
31
0
0
LINE
8
0
62
4
10
131
20
105.5
30
0
11
131
21
104
31
0
0
LINE
8
0
62
4
10
131
20
104
30
0
11
132.8
21
104
31
0
0
CIRCLE
8
0
62
7
10
154
20
119
30
0
40
7
0
LINE
8
0
62
4
10
152
20
107
30
0
11
153.8
21
107
31
0
0
LINE
8
0
62
4
10
153.8
20
107
30
0
11
153.8
21
104
31
0
0
LINE
8
0
62
4
10
152
20
105.5
30
0
11
153.8
21
105.5
31
0
0
LINE
8
0
62
4
10
152
20
104
30
0
11
153.8
21
104
31
0
0
LINE
8
0
62
7
10
103
20
82
30
0
11
104
21
82
31
0
0
LINE
8
0
62
7
10
106
20
84
30
0
11
106
21
92
31
0
0
LINE
8
0
62
7
10
104
20
94
30
0
11
103
21
94
31
0
0
LINE
8
0
62
7
10
101
20
92
30
0
11
101
21
84
31
0
0
ARC
8
0
62
7
10
103
20
84
30
0
40
2
50
180
51
270
0
ARC
8
0
62
7
10
104
20
84
30
0
40
2
50
270
51
360
0
ARC
8
0
62
7
10
104
20
92
30
0
40
2
50
0
51
90
0
ARC
8
0
62
7
10
103
20
92
30
0
40
2
50
90
51
180
0
LINE
8
0
62
7
10
113
20
82
30
0
11
114
21
82
31
0
0
LINE
8
0
62
7
10
116
20
84
30
0
11
116
21
92
31
0
0
LINE
8
0
62
7
10
114
20
94
30
0
11
113
21
94
31
0
0
LINE
8
0
62
7
10
111
20
92
30
0
11
111
21
84
31
0
0
ARC
8
0
62
7
10
113
20
84
30
0
40
2
50
180
51
270
0
ARC
8
0
62
7
10
114
20
84
30
0
40
2
50
270
51
360
0
ARC
8
0
62
7
10
114
20
92
30
0
40
2
50
0
51
90
0
ARC
8
0
62
7
10
113
20
92
30
0
40
2
50
90
51
180
0
LINE
8
0
62
7
10
123
20
82
30
0
11
124
21
82
31
0
0
LINE
8
0
62
7
10
126
20
84
30
0
11
126
21
92
31
0
0
LINE
8
0
62
7
10
124
20
94
30
0
11
123
21
94
31
0
0
LINE
8
0
62
7
10
121
20
92
30
0
11
121
21
84
31
0
0
ARC
8
0
62
7
10
123
20
84
30
0
40
2
50
180
51
270
0
ARC
8
0
62
7
10
124
20
84
30
0
40
2
50
270
51
360
0
ARC
8
0
62
7
10
124
20
92
30
0
40
2
50
0
51
90
0
ARC
8
0
62
7
10
123
20
92
30
0
40
2
50
90
51
180
0
LINE
8
0
62
7
10
133
20
82
30
0
11
134
21
82
31
0
0
LINE
8
0
62
7
10
136
20
84
30
0
11
136
21
92
31
0
0
LINE
8
0
62
7
10
134
20
94
30
0
11
133
21
94
31
0
0
LINE
8
0
62
7
10
131
20
92
30
0
11
131
21
84
31
0
0
ARC
8
0
62
7
10
133
20
84
30
0
40
2
50
180
51
270
0
ARC
8
0
62
7
10
134
20
84
30
0
40
2
50
270
51
360
0
ARC
8
0
62
7
10
134
20
92
30
0
40
2
50
0
51
90
0
ARC
8
0
62
7
10
133
20
92
30
0
40
2
50
90
51
180
0
LINE
8
0
62
7
10
143
20
82
30
0
11
144
21
82
31
0
0
LINE
8
0
62
7
10
146
20
84
30
0
11
146
21
92
31
0
0
LINE
8
0
62
7
10
144
20
94
30
0
11
143
21
94
31
0
0
LINE
8
0
62
7
10
141
20
92
30
0
11
141
21
84
31
0
0
ARC
8
0
62
7
10
143
20
84
30
0
40
2
50
180
51
270
0
ARC
8
0
62
7
10
144
20
84
30
0
40
2
50
270
51
360
0
ARC
8
0
62
7
10
144
20
92
30
0
40
2
50
0
51
90
0
ARC
8
0
62
7
10
143
20
92
30
0
40
2
50
90
51
180
0
LINE
8
0
62
7
10
153
20
82
30
0
11
154
21
82
31
0
0
LINE
8
0
62
7
10
156
20
84
30
0
11
156
21
92
31
0
0
LINE
8
0
62
7
10
154
20
94
30
0
11
153
21
94
31
0
0
LINE
8
0
62
7
10
151
20
92
30
0
11
151
21
84
31
0
0
ARC
8
0
62
7
10
153
20
84
30
0
40
2
50
180
51
270
0
ARC
8
0
62
7
10
154
20
84
30
0
40
2
50
270
51
360
0
ARC
8
0
62
7
10
154
20
92
30
0
40
2
50
0
51
90
0
ARC
8
0
62
7
10
153
20
92
30
0
40
2
50
90
51
180
0
CIRCLE
8
0
62
7
10
22
20
83
30
0
40
3
0
CIRCLE
8
0
62
7
10
37
20
83
30
0
40
3
0
CIRCLE
8
0
62
7
10
52
20
83
30
0
40
3
0
LINE
8
0
62
4
10
62.5
20
73.5
30
0
11
61
21
73.5
31
0
0
LINE
8
0
62
4
10
61
20
73.5
30
0
11
61
21
71
31
0
0
LINE
8
0
62
4
10
61
20
71
30
0
11
62.5
21
71
31
0
0
LINE
8
0
62
4
10
63.25
20
71
30
0
11
63.25
21
73.5
31
0
0
LINE
8
0
62
4
10
63.25
20
73.5
30
0
11
64.75
21
73.5
31
0
0
LINE
8
0
62
4
10
64.75
20
73.5
30
0
11
64.75
21
71
31
0
0
LINE
8
0
62
4
10
64.75
20
71
30
0
11
63.25
21
71
31
0
0
LINE
8
0
62
4
10
65.5
20
71
30
0
11
65.5
21
73.5
31
0
0
LINE
8
0
62
4
10
65.5
20
73.5
30
0
11
67
21
71
31
0
0
LINE
8
0
62
4
10
67
20
71
30
0
11
67
21
73.5
31
0
0
LINE
8
0
62
4
10
67.75
20
73.5
30
0
11
69.25
21
73.5
31
0
0
LINE
8
0
62
4
10
68.5
20
73.5
30
0
11
68.5
21
71
31
0
0
LINE
8
0
62
4
10
70
20
71
30
0
11
70
21
73.5
31
0
0
LINE
8
0
62
4
10
70
20
73.5
30
0
11
71.5
21
73.5
31
0
0
LINE
8
0
62
4
10
71.5
20
73.5
30
0
11
71.5
21
72.25
31
0
0
LINE
8
0
62
4
10
71.5
20
72.25
30
0
11
70
21
72.25
31
0
0
LINE
8
0
62
4
10
70.5
20
72.25
30
0
11
71.5
21
71
31
0
0
LINE
8
0
62
4
10
72.25
20
71
30
0
11
72.25
21
73.5
31
0
0
LINE
8
0
62
4
10
72.25
20
73.5
30
0
11
73.75
21
73.5
31
0
0
LINE
8
0
62
4
10
73.75
20
73.5
30
0
11
73.75
21
71
31
0
0
LINE
8
0
62
4
10
73.75
20
71
30
0
11
72.25
21
71
31
0
0
LINE
8
0
62
4
10
74.5
20
73.5
30
0
11
74.5
21
71
31
0
0
LINE
8
0
62
4
10
74.5
20
71
30
0
11
76
21
71
31
0
0
LINE
8
0
62
4
10
79
20
71
30
0
11
79
21
73.5
31
0
0
LINE
8
0
62
4
10
79
20
73.5
30
0
11
80.5
21
73.5
31
0
0
LINE
8
0
62
4
10
80.5
20
73.5
30
0
11
80.5
21
72.25
31
0
0
LINE
8
0
62
4
10
80.5
20
72.25
30
0
11
79
21
72.25
31
0
0
LINE
8
0
62
4
10
81.25
20
71
30
0
11
81.25
21
73.5
31
0
0
LINE
8
0
62
4
10
81.25
20
73.5
30
0
11
82.75
21
73.5
31
0
0
LINE
8
0
62
4
10
82.75
20
73.5
30
0
11
82.75
21
71
31
0
0
LINE
8
0
62
4
10
81.25
20
72.25
30
0
11
82.75
21
72.25
31
0
0
LINE
8
0
62
4
10
83.5
20
71
30
0
11
83.5
21
73.5
31
0
0
LINE
8
0
62
4
10
83.5
20
73.5
30
0
11
85
21
71
31
0
0
LINE
8
0
62
4
10
85
20
71
30
0
11
85
21
73.5
31
0
0
LINE
8
0
62
4
10
87.25
20
73.5
30
0
11
85.75
21
73.5
31
0
0
LINE
8
0
62
4
10
85.75
20
73.5
30
0
11
85.75
21
71
31
0
0
LINE
8
0
62
4
10
85.75
20
71
30
0
11
87.25
21
71
31
0
0
LINE
8
0
62
4
10
85.75
20
72.25
30
0
11
87
21
72.25
31
0
0
LINE
8
0
62
4
10
88
20
73.5
30
0
11
88
21
71
31
0
0
LINE
8
0
62
4
10
88
20
71
30
0
11
89.5
21
71
31
0
0
LINE
8
0
62
7
10
200
20
65
30
0
11
368
21
65
31
0
0
LINE
8
0
62
7
10
374
20
71
30
0
11
374
21
159
31
0
0
LINE
8
0
62
7
10
368
20
165
30
0
11
200
21
165
31
0
0
LINE
8
0
62
7
10
194
20
159
30
0
11
194
21
71
31
0
0
ARC
8
0
62
7
10
200
20
71
30
0
40
6
50
180
51
270
0
ARC
8
0
62
7
10
368
20
71
30
0
40
6
50
270
51
360
0
ARC
8
0
62
7
10
368
20
159
30
0
40
6
50
0
51
90
0
ARC
8
0
62
7
10
200
20
159
30
0
40
6
50
90
51
180
0
CIRCLE
8
0
62
7
10
200
20
71
30
0
40
1.7
0
CIRCLE
8
0
62
7
10
200
20
159
30
0
40
1.7
0
CIRCLE
8
0
62
7
10
368
20
71
30
0
40
1.7
0
CIRCLE
8
0
62
7
10
368
20
159
30
0
40
1.7
0
LINE
8
0
62
7
10
218
20
89
30
0
11
223
21
89
31
0
0
LINE
8
0
62
7
10
225
20
91
30
0
11
225
21
91
31
0
0
LINE
8
0
62
7
10
223
20
93
30
0
11
218
21
93
31
0
0
LINE
8
0
62
7
10
216
20
91
30
0
11
216
21
91
31
0
0
ARC
8
0
62
7
10
218
20
91
30
0
40
2
50
180
51
270
0
ARC
8
0
62
7
10
223
20
91
30
0
40
2
50
270
51
360
0
ARC
8
0
62
7
10
223
20
91
30
0
40
2
50
0
51
90
0
ARC
8
0
62
7
10
218
20
91
30
0
40
2
50
90
51
180
0
LINE
8
0
62
7
10
234
20
89
30
0
11
239
21
89
31
0
0
LINE
8
0
62
7
10
241
20
91
30
0
11
241
21
91
31
0
0
LINE
8
0
62
7
10
239
20
93
30
0
11
234
21
93
31
0
0
LINE
8
0
62
7
10
232
20
91
30
0
11
232
21
91
31
0
0
ARC
8
0
62
7
10
234
20
91
30
0
40
2
50
180
51
270
0
ARC
8
0
62
7
10
239
20
91
30
0
40
2
50
270
51
360
0
ARC
8
0
62
7
10
239
20
91
30
0
40
2
50
0
51
90
0
ARC
8
0
62
7
10
234
20
91
30
0
40
2
50
90
51
180
0
LINE
8
0
62
7
10
250
20
89
30
0
11
255
21
89
31
0
0
LINE
8
0
62
7
10
257
20
91
30
0
11
257
21
91
31
0
0
LINE
8
0
62
7
10
255
20
93
30
0
11
250
21
93
31
0
0
LINE
8
0
62
7
10
248
20
91
30
0
11
248
21
91
31
0
0
ARC
8
0
62
7
10
250
20
91
30
0
40
2
50
180
51
270
0
ARC
8
0
62
7
10
255
20
91
30
0
40
2
50
270
51
360
0
ARC
8
0
62
7
10
255
20
91
30
0
40
2
50
0
51
90
0
ARC
8
0
62
7
10
250
20
91
30
0
40
2
50
90
51
180
0
LINE
8
0
62
7
10
266
20
89
30
0
11
271
21
89
31
0
0
LINE
8
0
62
7
10
273
20
91
30
0
11
273
21
91
31
0
0
LINE
8
0
62
7
10
271
20
93
30
0
11
266
21
93
31
0
0
LINE
8
0
62
7
10
264
20
91
30
0
11
264
21
91
31
0
0
ARC
8
0
62
7
10
266
20
91
30
0
40
2
50
180
51
270
0
ARC
8
0
62
7
10
271
20
91
30
0
40
2
50
270
51
360
0
ARC
8
0
62
7
10
271
20
91
30
0
40
2
50
0
51
90
0
ARC
8
0
62
7
10
266
20
91
30
0
40
2
50
90
51
180
0
LINE
8
0
62
7
10
282
20
89
30
0
11
287
21
89
31
0
0
LINE
8
0
62
7
10
289
20
91
30
0
11
289
21
91
31
0
0
LINE
8
0
62
7
10
287
20
93
30
0
11
282
21
93
31
0
0
LINE
8
0
62
7
10
280
20
91
30
0
11
280
21
91
31
0
0
ARC
8
0
62
7
10
282
20
91
30
0
40
2
50
180
51
270
0
ARC
8
0
62
7
10
287
20
91
30
0
40
2
50
270
51
360
0
ARC
8
0
62
7
10
287
20
91
30
0
40
2
50
0
51
90
0
ARC
8
0
62
7
10
282
20
91
30
0
40
2
50
90
51
180
0
LINE
8
0
62
7
10
298
20
89
30
0
11
303
21
89
31
0
0
LINE
8
0
62
7
10
305
20
91
30
0
11
305
21
91
31
0
0
LINE
8
0
62
7
10
303
20
93
30
0
11
298
21
93
31
0
0
LINE
8
0
62
7
10
296
20
91
30
0
11
296
21
91
31
0
0
ARC
8
0
62
7
10
298
20
91
30
0
40
2
50
180
51
270
0
ARC
8
0
62
7
10
303
20
91
30
0
40
2
50
270
51
360
0
ARC
8
0
62
7
10
303
20
91
30
0
40
2
50
0
51
90
0
ARC
8
0
62
7
10
298
20
91
30
0
40
2
50
90
51
180
0
LINE
8
0
62
7
10
314
20
89
30
0
11
319
21
89
31
0
0
LINE
8
0
62
7
10
321
20
91
30
0
11
321
21
91
31
0
0
LINE
8
0
62
7
10
319
20
93
30
0
11
314
21
93
31
0
0
LINE
8
0
62
7
10
312
20
91
30
0
11
312
21
91
31
0
0
ARC
8
0
62
7
10
314
20
91
30
0
40
2
50
180
51
270
0
ARC
8
0
62
7
10
319
20
91
30
0
40
2
50
270
51
360
0
ARC
8
0
62
7
10
319
20
91
30
0
40
2
50
0
51
90
0
ARC
8
0
62
7
10
314
20
91
30
0
40
2
50
90
51
180
0
LINE
8
0
62
7
10
330
20
89
30
0
11
335
21
89
31
0
0
LINE
8
0
62
7
10
337
20
91
30
0
11
337
21
91
31
0
0
LINE
8
0
62
7
10
335
20
93
30
0
11
330
21
93
31
0
0
LINE
8
0
62
7
10
328
20
91
30
0
11
328
21
91
31
0
0
ARC
8
0
62
7
10
330
20
91
30
0
40
2
50
180
51
270
0
ARC
8
0
62
7
10
335
20
91
30
0
40
2
50
270
51
360
0
ARC
8
0
62
7
10
335
20
91
30
0
40
2
50
0
51
90
0
ARC
8
0
62
7
10
330
20
91
30
0
40
2
50
90
51
180
0
LINE
8
0
62
7
10
346
20
89
30
0
11
351
21
89
31
0
0
LINE
8
0
62
7
10
353
20
91
30
0
11
353
21
91
31
0
0
LINE
8
0
62
7
10
351
20
93
30
0
11
346
21
93
31
0
0
LINE
8
0
62
7
10
344
20
91
30
0
11
344
21
91
31
0
0
ARC
8
0
62
7
10
346
20
91
30
0
40
2
50
180
51
270
0
ARC
8
0
62
7
10
351
20
91
30
0
40
2
50
270
51
360
0
ARC
8
0
62
7
10
351
20
91
30
0
40
2
50
0
51
90
0
ARC
8
0
62
7
10
346
20
91
30
0
40
2
50
90
51
180
0
LINE
8
0
62
7
10
218
20
100
30
0
11
223
21
100
31
0
0
LINE
8
0
62
7
10
225
20
102
30
0
11
225
21
102
31
0
0
LINE
8
0
62
7
10
223
20
104
30
0
11
218
21
104
31
0
0
LINE
8
0
62
7
10
216
20
102
30
0
11
216
21
102
31
0
0
ARC
8
0
62
7
10
218
20
102
30
0
40
2
50
180
51
270
0
ARC
8
0
62
7
10
223
20
102
30
0
40
2
50
270
51
360
0
ARC
8
0
62
7
10
223
20
102
30
0
40
2
50
0
51
90
0
ARC
8
0
62
7
10
218
20
102
30
0
40
2
50
90
51
180
0
LINE
8
0
62
7
10
234
20
100
30
0
11
239
21
100
31
0
0
LINE
8
0
62
7
10
241
20
102
30
0
11
241
21
102
31
0
0
LINE
8
0
62
7
10
239
20
104
30
0
11
234
21
104
31
0
0
LINE
8
0
62
7
10
232
20
102
30
0
11
232
21
102
31
0
0
ARC
8
0
62
7
10
234
20
102
30
0
40
2
50
180
51
270
0
ARC
8
0
62
7
10
239
20
102
30
0
40
2
50
270
51
360
0
ARC
8
0
62
7
10
239
20
102
30
0
40
2
50
0
51
90
0
ARC
8
0
62
7
10
234
20
102
30
0
40
2
50
90
51
180
0
LINE
8
0
62
7
10
250
20
100
30
0
11
255
21
100
31
0
0
LINE
8
0
62
7
10
257
20
102
30
0
11
257
21
102
31
0
0
LINE
8
0
62
7
10
255
20
104
30
0
11
250
21
104
31
0
0
LINE
8
0
62
7
10
248
20
102
30
0
11
248
21
102
31
0
0
ARC
8
0
62
7
10
250
20
102
30
0
40
2
50
180
51
270
0
ARC
8
0
62
7
10
255
20
102
30
0
40
2
50
270
51
360
0
ARC
8
0
62
7
10
255
20
102
30
0
40
2
50
0
51
90
0
ARC
8
0
62
7
10
250
20
102
30
0
40
2
50
90
51
180
0
LINE
8
0
62
7
10
266
20
100
30
0
11
271
21
100
31
0
0
LINE
8
0
62
7
10
273
20
102
30
0
11
273
21
102
31
0
0
LINE
8
0
62
7
10
271
20
104
30
0
11
266
21
104
31
0
0
LINE
8
0
62
7
10
264
20
102
30
0
11
264
21
102
31
0
0
ARC
8
0
62
7
10
266
20
102
30
0
40
2
50
180
51
270
0
ARC
8
0
62
7
10
271
20
102
30
0
40
2
50
270
51
360
0
ARC
8
0
62
7
10
271
20
102
30
0
40
2
50
0
51
90
0
ARC
8
0
62
7
10
266
20
102
30
0
40
2
50
90
51
180
0
LINE
8
0
62
7
10
282
20
100
30
0
11
287
21
100
31
0
0
LINE
8
0
62
7
10
289
20
102
30
0
11
289
21
102
31
0
0
LINE
8
0
62
7
10
287
20
104
30
0
11
282
21
104
31
0
0
LINE
8
0
62
7
10
280
20
102
30
0
11
280
21
102
31
0
0
ARC
8
0
62
7
10
282
20
102
30
0
40
2
50
180
51
270
0
ARC
8
0
62
7
10
287
20
102
30
0
40
2
50
270
51
360
0
ARC
8
0
62
7
10
287
20
102
30
0
40
2
50
0
51
90
0
ARC
8
0
62
7
10
282
20
102
30
0
40
2
50
90
51
180
0
LINE
8
0
62
7
10
298
20
100
30
0
11
303
21
100
31
0
0
LINE
8
0
62
7
10
305
20
102
30
0
11
305
21
102
31
0
0
LINE
8
0
62
7
10
303
20
104
30
0
11
298
21
104
31
0
0
LINE
8
0
62
7
10
296
20
102
30
0
11
296
21
102
31
0
0
ARC
8
0
62
7
10
298
20
102
30
0
40
2
50
180
51
270
0
ARC
8
0
62
7
10
303
20
102
30
0
40
2
50
270
51
360
0
ARC
8
0
62
7
10
303
20
102
30
0
40
2
50
0
51
90
0
ARC
8
0
62
7
10
298
20
102
30
0
40
2
50
90
51
180
0
LINE
8
0
62
7
10
314
20
100
30
0
11
319
21
100
31
0
0
LINE
8
0
62
7
10
321
20
102
30
0
11
321
21
102
31
0
0
LINE
8
0
62
7
10
319
20
104
30
0
11
314
21
104
31
0
0
LINE
8
0
62
7
10
312
20
102
30
0
11
312
21
102
31
0
0
ARC
8
0
62
7
10
314
20
102
30
0
40
2
50
180
51
270
0
ARC
8
0
62
7
10
319
20
102
30
0
40
2
50
270
51
360
0
ARC
8
0
62
7
10
319
20
102
30
0
40
2
50
0
51
90
0
ARC
8
0
62
7
10
314
20
102
30
0
40
2
50
90
51
180
0
LINE
8
0
62
7
10
330
20
100
30
0
11
335
21
100
31
0
0
LINE
8
0
62
7
10
337
20
102
30
0
11
337
21
102
31
0
0
LINE
8
0
62
7
10
335
20
104
30
0
11
330
21
104
31
0
0
LINE
8
0
62
7
10
328
20
102
30
0
11
328
21
102
31
0
0
ARC
8
0
62
7
10
330
20
102
30
0
40
2
50
180
51
270
0
ARC
8
0
62
7
10
335
20
102
30
0
40
2
50
270
51
360
0
ARC
8
0
62
7
10
335
20
102
30
0
40
2
50
0
51
90
0
ARC
8
0
62
7
10
330
20
102
30
0
40
2
50
90
51
180
0
LINE
8
0
62
7
10
346
20
100
30
0
11
351
21
100
31
0
0
LINE
8
0
62
7
10
353
20
102
30
0
11
353
21
102
31
0
0
LINE
8
0
62
7
10
351
20
104
30
0
11
346
21
104
31
0
0
LINE
8
0
62
7
10
344
20
102
30
0
11
344
21
102
31
0
0
ARC
8
0
62
7
10
346
20
102
30
0
40
2
50
180
51
270
0
ARC
8
0
62
7
10
351
20
102
30
0
40
2
50
270
51
360
0
ARC
8
0
62
7
10
351
20
102
30
0
40
2
50
0
51
90
0
ARC
8
0
62
7
10
346
20
102
30
0
40
2
50
90
51
180
0
LINE
8
0
62
7
10
218
20
111
30
0
11
223
21
111
31
0
0
LINE
8
0
62
7
10
225
20
113
30
0
11
225
21
113
31
0
0
LINE
8
0
62
7
10
223
20
115
30
0
11
218
21
115
31
0
0
LINE
8
0
62
7
10
216
20
113
30
0
11
216
21
113
31
0
0
ARC
8
0
62
7
10
218
20
113
30
0
40
2
50
180
51
270
0
ARC
8
0
62
7
10
223
20
113
30
0
40
2
50
270
51
360
0
ARC
8
0
62
7
10
223
20
113
30
0
40
2
50
0
51
90
0
ARC
8
0
62
7
10
218
20
113
30
0
40
2
50
90
51
180
0
LINE
8
0
62
7
10
234
20
111
30
0
11
239
21
111
31
0
0
LINE
8
0
62
7
10
241
20
113
30
0
11
241
21
113
31
0
0
LINE
8
0
62
7
10
239
20
115
30
0
11
234
21
115
31
0
0
LINE
8
0
62
7
10
232
20
113
30
0
11
232
21
113
31
0
0
ARC
8
0
62
7
10
234
20
113
30
0
40
2
50
180
51
270
0
ARC
8
0
62
7
10
239
20
113
30
0
40
2
50
270
51
360
0
ARC
8
0
62
7
10
239
20
113
30
0
40
2
50
0
51
90
0
ARC
8
0
62
7
10
234
20
113
30
0
40
2
50
90
51
180
0
LINE
8
0
62
7
10
250
20
111
30
0
11
255
21
111
31
0
0
LINE
8
0
62
7
10
257
20
113
30
0
11
257
21
113
31
0
0
LINE
8
0
62
7
10
255
20
115
30
0
11
250
21
115
31
0
0
LINE
8
0
62
7
10
248
20
113
30
0
11
248
21
113
31
0
0
ARC
8
0
62
7
10
250
20
113
30
0
40
2
50
180
51
270
0
ARC
8
0
62
7
10
255
20
113
30
0
40
2
50
270
51
360
0
ARC
8
0
62
7
10
255
20
113
30
0
40
2
50
0
51
90
0
ARC
8
0
62
7
10
250
20
113
30
0
40
2
50
90
51
180
0
LINE
8
0
62
7
10
266
20
111
30
0
11
271
21
111
31
0
0
LINE
8
0
62
7
10
273
20
113
30
0
11
273
21
113
31
0
0
LINE
8
0
62
7
10
271
20
115
30
0
11
266
21
115
31
0
0
LINE
8
0
62
7
10
264
20
113
30
0
11
264
21
113
31
0
0
ARC
8
0
62
7
10
266
20
113
30
0
40
2
50
180
51
270
0
ARC
8
0
62
7
10
271
20
113
30
0
40
2
50
270
51
360
0
ARC
8
0
62
7
10
271
20
113
30
0
40
2
50
0
51
90
0
ARC
8
0
62
7
10
266
20
113
30
0
40
2
50
90
51
180
0
LINE
8
0
62
7
10
282
20
111
30
0
11
287
21
111
31
0
0
LINE
8
0
62
7
10
289
20
113
30
0
11
289
21
113
31
0
0
LINE
8
0
62
7
10
287
20
115
30
0
11
282
21
115
31
0
0
LINE
8
0
62
7
10
280
20
113
30
0
11
280
21
113
31
0
0
ARC
8
0
62
7
10
282
20
113
30
0
40
2
50
180
51
270
0
ARC
8
0
62
7
10
287
20
113
30
0
40
2
50
270
51
360
0
ARC
8
0
62
7
10
287
20
113
30
0
40
2
50
0
51
90
0
ARC
8
0
62
7
10
282
20
113
30
0
40
2
50
90
51
180
0
LINE
8
0
62
7
10
298
20
111
30
0
11
303
21
111
31
0
0
LINE
8
0
62
7
10
305
20
113
30
0
11
305
21
113
31
0
0
LINE
8
0
62
7
10
303
20
115
30
0
11
298
21
115
31
0
0
LINE
8
0
62
7
10
296
20
113
30
0
11
296
21
113
31
0
0
ARC
8
0
62
7
10
298
20
113
30
0
40
2
50
180
51
270
0
ARC
8
0
62
7
10
303
20
113
30
0
40
2
50
270
51
360
0
ARC
8
0
62
7
10
303
20
113
30
0
40
2
50
0
51
90
0
ARC
8
0
62
7
10
298
20
113
30
0
40
2
50
90
51
180
0
LINE
8
0
62
7
10
314
20
111
30
0
11
319
21
111
31
0
0
LINE
8
0
62
7
10
321
20
113
30
0
11
321
21
113
31
0
0
LINE
8
0
62
7
10
319
20
115
30
0
11
314
21
115
31
0
0
LINE
8
0
62
7
10
312
20
113
30
0
11
312
21
113
31
0
0
ARC
8
0
62
7
10
314
20
113
30
0
40
2
50
180
51
270
0
ARC
8
0
62
7
10
319
20
113
30
0
40
2
50
270
51
360
0
ARC
8
0
62
7
10
319
20
113
30
0
40
2
50
0
51
90
0
ARC
8
0
62
7
10
314
20
113
30
0
40
2
50
90
51
180
0
LINE
8
0
62
7
10
330
20
111
30
0
11
335
21
111
31
0
0
LINE
8
0
62
7
10
337
20
113
30
0
11
337
21
113
31
0
0
LINE
8
0
62
7
10
335
20
115
30
0
11
330
21
115
31
0
0
LINE
8
0
62
7
10
328
20
113
30
0
11
328
21
113
31
0
0
ARC
8
0
62
7
10
330
20
113
30
0
40
2
50
180
51
270
0
ARC
8
0
62
7
10
335
20
113
30
0
40
2
50
270
51
360
0
ARC
8
0
62
7
10
335
20
113
30
0
40
2
50
0
51
90
0
ARC
8
0
62
7
10
330
20
113
30
0
40
2
50
90
51
180
0
LINE
8
0
62
7
10
346
20
111
30
0
11
351
21
111
31
0
0
LINE
8
0
62
7
10
353
20
113
30
0
11
353
21
113
31
0
0
LINE
8
0
62
7
10
351
20
115
30
0
11
346
21
115
31
0
0
LINE
8
0
62
7
10
344
20
113
30
0
11
344
21
113
31
0
0
ARC
8
0
62
7
10
346
20
113
30
0
40
2
50
180
51
270
0
ARC
8
0
62
7
10
351
20
113
30
0
40
2
50
270
51
360
0
ARC
8
0
62
7
10
351
20
113
30
0
40
2
50
0
51
90
0
ARC
8
0
62
7
10
346
20
113
30
0
40
2
50
90
51
180
0
LINE
8
0
62
7
10
218
20
122
30
0
11
223
21
122
31
0
0
LINE
8
0
62
7
10
225
20
124
30
0
11
225
21
124
31
0
0
LINE
8
0
62
7
10
223
20
126
30
0
11
218
21
126
31
0
0
LINE
8
0
62
7
10
216
20
124
30
0
11
216
21
124
31
0
0
ARC
8
0
62
7
10
218
20
124
30
0
40
2
50
180
51
270
0
ARC
8
0
62
7
10
223
20
124
30
0
40
2
50
270
51
360
0
ARC
8
0
62
7
10
223
20
124
30
0
40
2
50
0
51
90
0
ARC
8
0
62
7
10
218
20
124
30
0
40
2
50
90
51
180
0
LINE
8
0
62
7
10
234
20
122
30
0
11
239
21
122
31
0
0
LINE
8
0
62
7
10
241
20
124
30
0
11
241
21
124
31
0
0
LINE
8
0
62
7
10
239
20
126
30
0
11
234
21
126
31
0
0
LINE
8
0
62
7
10
232
20
124
30
0
11
232
21
124
31
0
0
ARC
8
0
62
7
10
234
20
124
30
0
40
2
50
180
51
270
0
ARC
8
0
62
7
10
239
20
124
30
0
40
2
50
270
51
360
0
ARC
8
0
62
7
10
239
20
124
30
0
40
2
50
0
51
90
0
ARC
8
0
62
7
10
234
20
124
30
0
40
2
50
90
51
180
0
LINE
8
0
62
7
10
250
20
122
30
0
11
255
21
122
31
0
0
LINE
8
0
62
7
10
257
20
124
30
0
11
257
21
124
31
0
0
LINE
8
0
62
7
10
255
20
126
30
0
11
250
21
126
31
0
0
LINE
8
0
62
7
10
248
20
124
30
0
11
248
21
124
31
0
0
ARC
8
0
62
7
10
250
20
124
30
0
40
2
50
180
51
270
0
ARC
8
0
62
7
10
255
20
124
30
0
40
2
50
270
51
360
0
ARC
8
0
62
7
10
255
20
124
30
0
40
2
50
0
51
90
0
ARC
8
0
62
7
10
250
20
124
30
0
40
2
50
90
51
180
0
LINE
8
0
62
7
10
266
20
122
30
0
11
271
21
122
31
0
0
LINE
8
0
62
7
10
273
20
124
30
0
11
273
21
124
31
0
0
LINE
8
0
62
7
10
271
20
126
30
0
11
266
21
126
31
0
0
LINE
8
0
62
7
10
264
20
124
30
0
11
264
21
124
31
0
0
ARC
8
0
62
7
10
266
20
124
30
0
40
2
50
180
51
270
0
ARC
8
0
62
7
10
271
20
124
30
0
40
2
50
270
51
360
0
ARC
8
0
62
7
10
271
20
124
30
0
40
2
50
0
51
90
0
ARC
8
0
62
7
10
266
20
124
30
0
40
2
50
90
51
180
0
LINE
8
0
62
7
10
282
20
122
30
0
11
287
21
122
31
0
0
LINE
8
0
62
7
10
289
20
124
30
0
11
289
21
124
31
0
0
LINE
8
0
62
7
10
287
20
126
30
0
11
282
21
126
31
0
0
LINE
8
0
62
7
10
280
20
124
30
0
11
280
21
124
31
0
0
ARC
8
0
62
7
10
282
20
124
30
0
40
2
50
180
51
270
0
ARC
8
0
62
7
10
287
20
124
30
0
40
2
50
270
51
360
0
ARC
8
0
62
7
10
287
20
124
30
0
40
2
50
0
51
90
0
ARC
8
0
62
7
10
282
20
124
30
0
40
2
50
90
51
180
0
LINE
8
0
62
7
10
298
20
122
30
0
11
303
21
122
31
0
0
LINE
8
0
62
7
10
305
20
124
30
0
11
305
21
124
31
0
0
LINE
8
0
62
7
10
303
20
126
30
0
11
298
21
126
31
0
0
LINE
8
0
62
7
10
296
20
124
30
0
11
296
21
124
31
0
0
ARC
8
0
62
7
10
298
20
124
30
0
40
2
50
180
51
270
0
ARC
8
0
62
7
10
303
20
124
30
0
40
2
50
270
51
360
0
ARC
8
0
62
7
10
303
20
124
30
0
40
2
50
0
51
90
0
ARC
8
0
62
7
10
298
20
124
30
0
40
2
50
90
51
180
0
LINE
8
0
62
7
10
314
20
122
30
0
11
319
21
122
31
0
0
LINE
8
0
62
7
10
321
20
124
30
0
11
321
21
124
31
0
0
LINE
8
0
62
7
10
319
20
126
30
0
11
314
21
126
31
0
0
LINE
8
0
62
7
10
312
20
124
30
0
11
312
21
124
31
0
0
ARC
8
0
62
7
10
314
20
124
30
0
40
2
50
180
51
270
0
ARC
8
0
62
7
10
319
20
124
30
0
40
2
50
270
51
360
0
ARC
8
0
62
7
10
319
20
124
30
0
40
2
50
0
51
90
0
ARC
8
0
62
7
10
314
20
124
30
0
40
2
50
90
51
180
0
LINE
8
0
62
7
10
330
20
122
30
0
11
335
21
122
31
0
0
LINE
8
0
62
7
10
337
20
124
30
0
11
337
21
124
31
0
0
LINE
8
0
62
7
10
335
20
126
30
0
11
330
21
126
31
0
0
LINE
8
0
62
7
10
328
20
124
30
0
11
328
21
124
31
0
0
ARC
8
0
62
7
10
330
20
124
30
0
40
2
50
180
51
270
0
ARC
8
0
62
7
10
335
20
124
30
0
40
2
50
270
51
360
0
ARC
8
0
62
7
10
335
20
124
30
0
40
2
50
0
51
90
0
ARC
8
0
62
7
10
330
20
124
30
0
40
2
50
90
51
180
0
LINE
8
0
62
7
10
346
20
122
30
0
11
351
21
122
31
0
0
LINE
8
0
62
7
10
353
20
124
30
0
11
353
21
124
31
0
0
LINE
8
0
62
7
10
351
20
126
30
0
11
346
21
126
31
0
0
LINE
8
0
62
7
10
344
20
124
30
0
11
344
21
124
31
0
0
ARC
8
0
62
7
10
346
20
124
30
0
40
2
50
180
51
270
0
ARC
8
0
62
7
10
351
20
124
30
0
40
2
50
270
51
360
0
ARC
8
0
62
7
10
351
20
124
30
0
40
2
50
0
51
90
0
ARC
8
0
62
7
10
346
20
124
30
0
40
2
50
90
51
180
0
LINE
8
0
62
7
10
218
20
133
30
0
11
223
21
133
31
0
0
LINE
8
0
62
7
10
225
20
135
30
0
11
225
21
135
31
0
0
LINE
8
0
62
7
10
223
20
137
30
0
11
218
21
137
31
0
0
LINE
8
0
62
7
10
216
20
135
30
0
11
216
21
135
31
0
0
ARC
8
0
62
7
10
218
20
135
30
0
40
2
50
180
51
270
0
ARC
8
0
62
7
10
223
20
135
30
0
40
2
50
270
51
360
0
ARC
8
0
62
7
10
223
20
135
30
0
40
2
50
0
51
90
0
ARC
8
0
62
7
10
218
20
135
30
0
40
2
50
90
51
180
0
LINE
8
0
62
7
10
234
20
133
30
0
11
239
21
133
31
0
0
LINE
8
0
62
7
10
241
20
135
30
0
11
241
21
135
31
0
0
LINE
8
0
62
7
10
239
20
137
30
0
11
234
21
137
31
0
0
LINE
8
0
62
7
10
232
20
135
30
0
11
232
21
135
31
0
0
ARC
8
0
62
7
10
234
20
135
30
0
40
2
50
180
51
270
0
ARC
8
0
62
7
10
239
20
135
30
0
40
2
50
270
51
360
0
ARC
8
0
62
7
10
239
20
135
30
0
40
2
50
0
51
90
0
ARC
8
0
62
7
10
234
20
135
30
0
40
2
50
90
51
180
0
LINE
8
0
62
7
10
250
20
133
30
0
11
255
21
133
31
0
0
LINE
8
0
62
7
10
257
20
135
30
0
11
257
21
135
31
0
0
LINE
8
0
62
7
10
255
20
137
30
0
11
250
21
137
31
0
0
LINE
8
0
62
7
10
248
20
135
30
0
11
248
21
135
31
0
0
ARC
8
0
62
7
10
250
20
135
30
0
40
2
50
180
51
270
0
ARC
8
0
62
7
10
255
20
135
30
0
40
2
50
270
51
360
0
ARC
8
0
62
7
10
255
20
135
30
0
40
2
50
0
51
90
0
ARC
8
0
62
7
10
250
20
135
30
0
40
2
50
90
51
180
0
LINE
8
0
62
7
10
266
20
133
30
0
11
271
21
133
31
0
0
LINE
8
0
62
7
10
273
20
135
30
0
11
273
21
135
31
0
0
LINE
8
0
62
7
10
271
20
137
30
0
11
266
21
137
31
0
0
LINE
8
0
62
7
10
264
20
135
30
0
11
264
21
135
31
0
0
ARC
8
0
62
7
10
266
20
135
30
0
40
2
50
180
51
270
0
ARC
8
0
62
7
10
271
20
135
30
0
40
2
50
270
51
360
0
ARC
8
0
62
7
10
271
20
135
30
0
40
2
50
0
51
90
0
ARC
8
0
62
7
10
266
20
135
30
0
40
2
50
90
51
180
0
LINE
8
0
62
7
10
282
20
133
30
0
11
287
21
133
31
0
0
LINE
8
0
62
7
10
289
20
135
30
0
11
289
21
135
31
0
0
LINE
8
0
62
7
10
287
20
137
30
0
11
282
21
137
31
0
0
LINE
8
0
62
7
10
280
20
135
30
0
11
280
21
135
31
0
0
ARC
8
0
62
7
10
282
20
135
30
0
40
2
50
180
51
270
0
ARC
8
0
62
7
10
287
20
135
30
0
40
2
50
270
51
360
0
ARC
8
0
62
7
10
287
20
135
30
0
40
2
50
0
51
90
0
ARC
8
0
62
7
10
282
20
135
30
0
40
2
50
90
51
180
0
LINE
8
0
62
7
10
298
20
133
30
0
11
303
21
133
31
0
0
LINE
8
0
62
7
10
305
20
135
30
0
11
305
21
135
31
0
0
LINE
8
0
62
7
10
303
20
137
30
0
11
298
21
137
31
0
0
LINE
8
0
62
7
10
296
20
135
30
0
11
296
21
135
31
0
0
ARC
8
0
62
7
10
298
20
135
30
0
40
2
50
180
51
270
0
ARC
8
0
62
7
10
303
20
135
30
0
40
2
50
270
51
360
0
ARC
8
0
62
7
10
303
20
135
30
0
40
2
50
0
51
90
0
ARC
8
0
62
7
10
298
20
135
30
0
40
2
50
90
51
180
0
LINE
8
0
62
7
10
314
20
133
30
0
11
319
21
133
31
0
0
LINE
8
0
62
7
10
321
20
135
30
0
11
321
21
135
31
0
0
LINE
8
0
62
7
10
319
20
137
30
0
11
314
21
137
31
0
0
LINE
8
0
62
7
10
312
20
135
30
0
11
312
21
135
31
0
0
ARC
8
0
62
7
10
314
20
135
30
0
40
2
50
180
51
270
0
ARC
8
0
62
7
10
319
20
135
30
0
40
2
50
270
51
360
0
ARC
8
0
62
7
10
319
20
135
30
0
40
2
50
0
51
90
0
ARC
8
0
62
7
10
314
20
135
30
0
40
2
50
90
51
180
0
LINE
8
0
62
7
10
330
20
133
30
0
11
335
21
133
31
0
0
LINE
8
0
62
7
10
337
20
135
30
0
11
337
21
135
31
0
0
LINE
8
0
62
7
10
335
20
137
30
0
11
330
21
137
31
0
0
LINE
8
0
62
7
10
328
20
135
30
0
11
328
21
135
31
0
0
ARC
8
0
62
7
10
330
20
135
30
0
40
2
50
180
51
270
0
ARC
8
0
62
7
10
335
20
135
30
0
40
2
50
270
51
360
0
ARC
8
0
62
7
10
335
20
135
30
0
40
2
50
0
51
90
0
ARC
8
0
62
7
10
330
20
135
30
0
40
2
50
90
51
180
0
LINE
8
0
62
7
10
346
20
133
30
0
11
351
21
133
31
0
0
LINE
8
0
62
7
10
353
20
135
30
0
11
353
21
135
31
0
0
LINE
8
0
62
7
10
351
20
137
30
0
11
346
21
137
31
0
0
LINE
8
0
62
7
10
344
20
135
30
0
11
344
21
135
31
0
0
ARC
8
0
62
7
10
346
20
135
30
0
40
2
50
180
51
270
0
ARC
8
0
62
7
10
351
20
135
30
0
40
2
50
270
51
360
0
ARC
8
0
62
7
10
351
20
135
30
0
40
2
50
0
51
90
0
ARC
8
0
62
7
10
346
20
135
30
0
40
2
50
90
51
180
0
LINE
8
0
62
4
10
258
20
154
30
0
11
259.2
21
150
31
0
0
LINE
8
0
62
4
10
259.2
20
150
30
0
11
260.4
21
154
31
0
0
LINE
8
0
62
4
10
264
20
154
30
0
11
261.6
21
154
31
0
0
LINE
8
0
62
4
10
261.6
20
154
30
0
11
261.6
21
150
31
0
0
LINE
8
0
62
4
10
261.6
20
150
30
0
11
264
21
150
31
0
0
LINE
8
0
62
4
10
261.6
20
152
30
0
11
263.6
21
152
31
0
0
LINE
8
0
62
4
10
265.2
20
150
30
0
11
265.2
21
154
31
0
0
LINE
8
0
62
4
10
265.2
20
154
30
0
11
267.6
21
150
31
0
0
LINE
8
0
62
4
10
267.6
20
150
30
0
11
267.6
21
154
31
0
0
LINE
8
0
62
4
10
268.8
20
154
30
0
11
271.2
21
154
31
0
0
LINE
8
0
62
4
10
270
20
154
30
0
11
270
21
150
31
0
0
LINE
8
0
62
4
10
272.4
20
154
30
0
11
274.8
21
154
31
0
0
LINE
8
0
62
4
10
273.6
20
154
30
0
11
273.6
21
150
31
0
0
LINE
8
0
62
4
10
272.4
20
150
30
0
11
274.8
21
150
31
0
0
LINE
8
0
62
4
10
276
20
154
30
0
11
276
21
150
31
0
0
LINE
8
0
62
4
10
276
20
150
30
0
11
278.4
21
150
31
0
0
LINE
8
0
62
4
10
279.6
20
150
30
0
11
279.6
21
154
31
0
0
LINE
8
0
62
4
10
279.6
20
154
30
0
11
282
21
154
31
0
0
LINE
8
0
62
4
10
282
20
154
30
0
11
282
21
150
31
0
0
LINE
8
0
62
4
10
279.6
20
152
30
0
11
282
21
152
31
0
0
LINE
8
0
62
4
10
283.2
20
154
30
0
11
285.6
21
154
31
0
0
LINE
8
0
62
4
10
284.4
20
154
30
0
11
284.4
21
150
31
0
0
LINE
8
0
62
4
10
286.8
20
154
30
0
11
289.2
21
154
31
0
0
LINE
8
0
62
4
10
288
20
154
30
0
11
288
21
150
31
0
0
LINE
8
0
62
4
10
286.8
20
150
30
0
11
289.2
21
150
31
0
0
LINE
8
0
62
4
10
290.4
20
150
30
0
11
290.4
21
154
31
0
0
LINE
8
0
62
4
10
290.4
20
154
30
0
11
292.8
21
154
31
0
0
LINE
8
0
62
4
10
292.8
20
154
30
0
11
292.8
21
150
31
0
0
LINE
8
0
62
4
10
292.8
20
150
30
0
11
290.4
21
150
31
0
0
LINE
8
0
62
4
10
294
20
150
30
0
11
294
21
154
31
0
0
LINE
8
0
62
4
10
294
20
154
30
0
11
296.4
21
150
31
0
0
LINE
8
0
62
4
10
296.4
20
150
30
0
11
296.4
21
154
31
0
0
LINE
8
0
62
4
10
265
20
74
30
0
11
265
21
76.5
31
0
0
LINE
8
0
62
4
10
265
20
76.5
30
0
11
266.5
21
76.5
31
0
0
LINE
8
0
62
4
10
266.5
20
76.5
30
0
11
266.5
21
75.25
31
0
0
LINE
8
0
62
4
10
266.5
20
75.25
30
0
11
265
21
75.25
31
0
0
LINE
8
0
62
4
10
265.5
20
75.25
30
0
11
266.5
21
74
31
0
0
LINE
8
0
62
4
10
268.75
20
76.5
30
0
11
267.25
21
76.5
31
0
0
LINE
8
0
62
4
10
267.25
20
76.5
30
0
11
267.25
21
74
31
0
0
LINE
8
0
62
4
10
267.25
20
74
30
0
11
268.75
21
74
31
0
0
LINE
8
0
62
4
10
267.25
20
75.25
30
0
11
268.5
21
75.25
31
0
0
LINE
8
0
62
4
10
269.5
20
74
30
0
11
269.5
21
76.5
31
0
0
LINE
8
0
62
4
10
269.5
20
76.5
30
0
11
271
21
76.5
31
0
0
LINE
8
0
62
4
10
271
20
76.5
30
0
11
271
21
74
31
0
0
LINE
8
0
62
4
10
269.5
20
75.25
30
0
11
271
21
75.25
31
0
0
LINE
8
0
62
4
10
271.75
20
74
30
0
11
271.75
21
76.5
31
0
0
LINE
8
0
62
4
10
271.75
20
76.5
30
0
11
273.25
21
76.5
31
0
0
LINE
8
0
62
4
10
273.25
20
76.5
30
0
11
273.25
21
75.25
31
0
0
LINE
8
0
62
4
10
273.25
20
75.25
30
0
11
271.75
21
75.25
31
0
0
LINE
8
0
62
4
10
272.25
20
75.25
30
0
11
273.25
21
74
31
0
0
LINE
8
0
62
4
10
276.25
20
74
30
0
11
276.25
21
76.5
31
0
0
LINE
8
0
62
4
10
276.25
20
76.5
30
0
11
277.75
21
76.5
31
0
0
LINE
8
0
62
4
10
277.75
20
76.5
30
0
11
277.75
21
75.25
31
0
0
LINE
8
0
62
4
10
277.75
20
75.25
30
0
11
276.25
21
75.25
31
0
0
LINE
8
0
62
4
10
278.5
20
74
30
0
11
278.5
21
76.5
31
0
0
LINE
8
0
62
4
10
278.5
20
76.5
30
0
11
280
21
76.5
31
0
0
LINE
8
0
62
4
10
280
20
76.5
30
0
11
280
21
74
31
0
0
LINE
8
0
62
4
10
278.5
20
75.25
30
0
11
280
21
75.25
31
0
0
LINE
8
0
62
4
10
280.75
20
74
30
0
11
280.75
21
76.5
31
0
0
LINE
8
0
62
4
10
280.75
20
76.5
30
0
11
282.25
21
74
31
0
0
LINE
8
0
62
4
10
282.25
20
74
30
0
11
282.25
21
76.5
31
0
0
LINE
8
0
62
4
10
284.5
20
76.5
30
0
11
283
21
76.5
31
0
0
LINE
8
0
62
4
10
283
20
76.5
30
0
11
283
21
74
31
0
0
LINE
8
0
62
4
10
283
20
74
30
0
11
284.5
21
74
31
0
0
LINE
8
0
62
4
10
283
20
75.25
30
0
11
284.25
21
75.25
31
0
0
LINE
8
0
62
4
10
285.25
20
76.5
30
0
11
285.25
21
74
31
0
0
LINE
8
0
62
4
10
285.25
20
74
30
0
11
286.75
21
74
31
0
0
LINE
8
0
62
7
10
4
20
0
30
0
11
176
21
0
31
0
0
LINE
8
0
62
7
10
180
20
4
30
0
11
180
21
46
31
0
0
LINE
8
0
62
7
10
176
20
50
30
0
11
4
21
50
31
0
0
LINE
8
0
62
7
10
0
20
46
30
0
11
0
21
4
31
0
0
ARC
8
0
62
7
10
4
20
4
30
0
40
4
50
180
51
270
0
ARC
8
0
62
7
10
176
20
4
30
0
40
4
50
270
51
360
0
ARC
8
0
62
7
10
176
20
46
30
0
40
4
50
0
51
90
0
ARC
8
0
62
7
10
4
20
46
30
0
40
4
50
90
51
180
0
CIRCLE
8
0
62
7
10
6
20
6
30
0
40
1.7
0
CIRCLE
8
0
62
7
10
6
20
44
30
0
40
1.7
0
CIRCLE
8
0
62
7
10
174
20
6
30
0
40
1.7
0
CIRCLE
8
0
62
7
10
174
20
44
30
0
40
1.7
0
LINE
8
0
62
7
10
19
20
15
30
0
11
22
21
15
31
0
0
LINE
8
0
62
7
10
24
20
17
30
0
11
24
21
33
31
0
0
LINE
8
0
62
7
10
22
20
35
30
0
11
19
21
35
31
0
0
LINE
8
0
62
7
10
17
20
33
30
0
11
17
21
17
31
0
0
ARC
8
0
62
7
10
19
20
17
30
0
40
2
50
180
51
270
0
ARC
8
0
62
7
10
22
20
17
30
0
40
2
50
270
51
360
0
ARC
8
0
62
7
10
22
20
33
30
0
40
2
50
0
51
90
0
ARC
8
0
62
7
10
19
20
33
30
0
40
2
50
90
51
180
0
LINE
8
0
62
7
10
32
20
15
30
0
11
35
21
15
31
0
0
LINE
8
0
62
7
10
37
20
17
30
0
11
37
21
33
31
0
0
LINE
8
0
62
7
10
35
20
35
30
0
11
32
21
35
31
0
0
LINE
8
0
62
7
10
30
20
33
30
0
11
30
21
17
31
0
0
ARC
8
0
62
7
10
32
20
17
30
0
40
2
50
180
51
270
0
ARC
8
0
62
7
10
35
20
17
30
0
40
2
50
270
51
360
0
ARC
8
0
62
7
10
35
20
33
30
0
40
2
50
0
51
90
0
ARC
8
0
62
7
10
32
20
33
30
0
40
2
50
90
51
180
0
LINE
8
0
62
7
10
45
20
15
30
0
11
48
21
15
31
0
0
LINE
8
0
62
7
10
50
20
17
30
0
11
50
21
33
31
0
0
LINE
8
0
62
7
10
48
20
35
30
0
11
45
21
35
31
0
0
LINE
8
0
62
7
10
43
20
33
30
0
11
43
21
17
31
0
0
ARC
8
0
62
7
10
45
20
17
30
0
40
2
50
180
51
270
0
ARC
8
0
62
7
10
48
20
17
30
0
40
2
50
270
51
360
0
ARC
8
0
62
7
10
48
20
33
30
0
40
2
50
0
51
90
0
ARC
8
0
62
7
10
45
20
33
30
0
40
2
50
90
51
180
0
LINE
8
0
62
7
10
58
20
15
30
0
11
61
21
15
31
0
0
LINE
8
0
62
7
10
63
20
17
30
0
11
63
21
33
31
0
0
LINE
8
0
62
7
10
61
20
35
30
0
11
58
21
35
31
0
0
LINE
8
0
62
7
10
56
20
33
30
0
11
56
21
17
31
0
0
ARC
8
0
62
7
10
58
20
17
30
0
40
2
50
180
51
270
0
ARC
8
0
62
7
10
61
20
17
30
0
40
2
50
270
51
360
0
ARC
8
0
62
7
10
61
20
33
30
0
40
2
50
0
51
90
0
ARC
8
0
62
7
10
58
20
33
30
0
40
2
50
90
51
180
0
LINE
8
0
62
7
10
71
20
15
30
0
11
74
21
15
31
0
0
LINE
8
0
62
7
10
76
20
17
30
0
11
76
21
33
31
0
0
LINE
8
0
62
7
10
74
20
35
30
0
11
71
21
35
31
0
0
LINE
8
0
62
7
10
69
20
33
30
0
11
69
21
17
31
0
0
ARC
8
0
62
7
10
71
20
17
30
0
40
2
50
180
51
270
0
ARC
8
0
62
7
10
74
20
17
30
0
40
2
50
270
51
360
0
ARC
8
0
62
7
10
74
20
33
30
0
40
2
50
0
51
90
0
ARC
8
0
62
7
10
71
20
33
30
0
40
2
50
90
51
180
0
LINE
8
0
62
7
10
84
20
15
30
0
11
87
21
15
31
0
0
LINE
8
0
62
7
10
89
20
17
30
0
11
89
21
33
31
0
0
LINE
8
0
62
7
10
87
20
35
30
0
11
84
21
35
31
0
0
LINE
8
0
62
7
10
82
20
33
30
0
11
82
21
17
31
0
0
ARC
8
0
62
7
10
84
20
17
30
0
40
2
50
180
51
270
0
ARC
8
0
62
7
10
87
20
17
30
0
40
2
50
270
51
360
0
ARC
8
0
62
7
10
87
20
33
30
0
40
2
50
0
51
90
0
ARC
8
0
62
7
10
84
20
33
30
0
40
2
50
90
51
180
0
LINE
8
0
62
7
10
97
20
15
30
0
11
100
21
15
31
0
0
LINE
8
0
62
7
10
102
20
17
30
0
11
102
21
33
31
0
0
LINE
8
0
62
7
10
100
20
35
30
0
11
97
21
35
31
0
0
LINE
8
0
62
7
10
95
20
33
30
0
11
95
21
17
31
0
0
ARC
8
0
62
7
10
97
20
17
30
0
40
2
50
180
51
270
0
ARC
8
0
62
7
10
100
20
17
30
0
40
2
50
270
51
360
0
ARC
8
0
62
7
10
100
20
33
30
0
40
2
50
0
51
90
0
ARC
8
0
62
7
10
97
20
33
30
0
40
2
50
90
51
180
0
LINE
8
0
62
7
10
110
20
15
30
0
11
113
21
15
31
0
0
LINE
8
0
62
7
10
115
20
17
30
0
11
115
21
33
31
0
0
LINE
8
0
62
7
10
113
20
35
30
0
11
110
21
35
31
0
0
LINE
8
0
62
7
10
108
20
33
30
0
11
108
21
17
31
0
0
ARC
8
0
62
7
10
110
20
17
30
0
40
2
50
180
51
270
0
ARC
8
0
62
7
10
113
20
17
30
0
40
2
50
270
51
360
0
ARC
8
0
62
7
10
113
20
33
30
0
40
2
50
0
51
90
0
ARC
8
0
62
7
10
110
20
33
30
0
40
2
50
90
51
180
0
LINE
8
0
62
7
10
123
20
15
30
0
11
126
21
15
31
0
0
LINE
8
0
62
7
10
128
20
17
30
0
11
128
21
33
31
0
0
LINE
8
0
62
7
10
126
20
35
30
0
11
123
21
35
31
0
0
LINE
8
0
62
7
10
121
20
33
30
0
11
121
21
17
31
0
0
ARC
8
0
62
7
10
123
20
17
30
0
40
2
50
180
51
270
0
ARC
8
0
62
7
10
126
20
17
30
0
40
2
50
270
51
360
0
ARC
8
0
62
7
10
126
20
33
30
0
40
2
50
0
51
90
0
ARC
8
0
62
7
10
123
20
33
30
0
40
2
50
90
51
180
0
LINE
8
0
62
7
10
136
20
15
30
0
11
139
21
15
31
0
0
LINE
8
0
62
7
10
141
20
17
30
0
11
141
21
33
31
0
0
LINE
8
0
62
7
10
139
20
35
30
0
11
136
21
35
31
0
0
LINE
8
0
62
7
10
134
20
33
30
0
11
134
21
17
31
0
0
ARC
8
0
62
7
10
136
20
17
30
0
40
2
50
180
51
270
0
ARC
8
0
62
7
10
139
20
17
30
0
40
2
50
270
51
360
0
ARC
8
0
62
7
10
139
20
33
30
0
40
2
50
0
51
90
0
ARC
8
0
62
7
10
136
20
33
30
0
40
2
50
90
51
180
0
LINE
8
0
62
7
10
149
20
15
30
0
11
152
21
15
31
0
0
LINE
8
0
62
7
10
154
20
17
30
0
11
154
21
33
31
0
0
LINE
8
0
62
7
10
152
20
35
30
0
11
149
21
35
31
0
0
LINE
8
0
62
7
10
147
20
33
30
0
11
147
21
17
31
0
0
ARC
8
0
62
7
10
149
20
17
30
0
40
2
50
180
51
270
0
ARC
8
0
62
7
10
152
20
17
30
0
40
2
50
270
51
360
0
ARC
8
0
62
7
10
152
20
33
30
0
40
2
50
0
51
90
0
ARC
8
0
62
7
10
149
20
33
30
0
40
2
50
90
51
180
0
LINE
8
0
62
4
10
71.5
20
8.5
30
0
11
70
21
8.5
31
0
0
LINE
8
0
62
4
10
70
20
8.5
30
0
11
70
21
7.25
31
0
0
LINE
8
0
62
4
10
70
20
7.25
30
0
11
71.5
21
7.25
31
0
0
LINE
8
0
62
4
10
71.5
20
7.25
30
0
11
71.5
21
6
31
0
0
LINE
8
0
62
4
10
71.5
20
6
30
0
11
70
21
6
31
0
0
LINE
8
0
62
4
10
72.25
20
8.5
30
0
11
73.75
21
8.5
31
0
0
LINE
8
0
62
4
10
73
20
8.5
30
0
11
73
21
6
31
0
0
LINE
8
0
62
4
10
72.25
20
6
30
0
11
73.75
21
6
31
0
0
LINE
8
0
62
4
10
74.5
20
6
30
0
11
74.5
21
8.5
31
0
0
LINE
8
0
62
4
10
74.5
20
8.5
30
0
11
75.5
21
8.5
31
0
0
LINE
8
0
62
4
10
75.5
20
8.5
30
0
11
76
21
8
31
0
0
LINE
8
0
62
4
10
76
20
8
30
0
11
76
21
6.5
31
0
0
LINE
8
0
62
4
10
76
20
6.5
30
0
11
75.5
21
6
31
0
0
LINE
8
0
62
4
10
75.5
20
6
30
0
11
74.5
21
6
31
0
0
LINE
8
0
62
4
10
78.25
20
8.5
30
0
11
76.75
21
8.5
31
0
0
LINE
8
0
62
4
10
76.75
20
8.5
30
0
11
76.75
21
6
31
0
0
LINE
8
0
62
4
10
76.75
20
6
30
0
11
78.25
21
6
31
0
0
LINE
8
0
62
4
10
76.75
20
7.25
30
0
11
78
21
7.25
31
0
0
LINE
8
0
62
4
10
81.25
20
6
30
0
11
81.25
21
8.5
31
0
0
LINE
8
0
62
4
10
81.25
20
8.5
30
0
11
82.75
21
8.5
31
0
0
LINE
8
0
62
4
10
82.75
20
8.5
30
0
11
82.75
21
7.25
31
0
0
LINE
8
0
62
4
10
82.75
20
7.25
30
0
11
81.25
21
7.25
31
0
0
LINE
8
0
62
4
10
83.5
20
6
30
0
11
83.5
21
8.5
31
0
0
LINE
8
0
62
4
10
83.5
20
8.5
30
0
11
85
21
8.5
31
0
0
LINE
8
0
62
4
10
85
20
8.5
30
0
11
85
21
6
31
0
0
LINE
8
0
62
4
10
83.5
20
7.25
30
0
11
85
21
7.25
31
0
0
LINE
8
0
62
4
10
85.75
20
6
30
0
11
85.75
21
8.5
31
0
0
LINE
8
0
62
4
10
85.75
20
8.5
30
0
11
87.25
21
6
31
0
0
LINE
8
0
62
4
10
87.25
20
6
30
0
11
87.25
21
8.5
31
0
0
LINE
8
0
62
4
10
89.5
20
8.5
30
0
11
88
21
8.5
31
0
0
LINE
8
0
62
4
10
88
20
8.5
30
0
11
88
21
6
31
0
0
LINE
8
0
62
4
10
88
20
6
30
0
11
89.5
21
6
31
0
0
LINE
8
0
62
4
10
88
20
7.25
30
0
11
89.25
21
7.25
31
0
0
LINE
8
0
62
4
10
90.25
20
8.5
30
0
11
90.25
21
6
31
0
0
LINE
8
0
62
4
10
90.25
20
6
30
0
11
91.75
21
6
31
0
0
LINE
8
0
62
7
10
198
20
0
30
0
11
370
21
0
31
0
0
LINE
8
0
62
7
10
374
20
4
30
0
11
374
21
46
31
0
0
LINE
8
0
62
7
10
370
20
50
30
0
11
198
21
50
31
0
0
LINE
8
0
62
7
10
194
20
46
30
0
11
194
21
4
31
0
0
ARC
8
0
62
7
10
198
20
4
30
0
40
4
50
180
51
270
0
ARC
8
0
62
7
10
370
20
4
30
0
40
4
50
270
51
360
0
ARC
8
0
62
7
10
370
20
46
30
0
40
4
50
0
51
90
0
ARC
8
0
62
7
10
198
20
46
30
0
40
4
50
90
51
180
0
CIRCLE
8
0
62
7
10
200
20
6
30
0
40
1.7
0
CIRCLE
8
0
62
7
10
200
20
44
30
0
40
1.7
0
CIRCLE
8
0
62
7
10
368
20
6
30
0
40
1.7
0
CIRCLE
8
0
62
7
10
368
20
44
30
0
40
1.7
0
LINE
8
0
62
7
10
213
20
15
30
0
11
216
21
15
31
0
0
LINE
8
0
62
7
10
218
20
17
30
0
11
218
21
33
31
0
0
LINE
8
0
62
7
10
216
20
35
30
0
11
213
21
35
31
0
0
LINE
8
0
62
7
10
211
20
33
30
0
11
211
21
17
31
0
0
ARC
8
0
62
7
10
213
20
17
30
0
40
2
50
180
51
270
0
ARC
8
0
62
7
10
216
20
17
30
0
40
2
50
270
51
360
0
ARC
8
0
62
7
10
216
20
33
30
0
40
2
50
0
51
90
0
ARC
8
0
62
7
10
213
20
33
30
0
40
2
50
90
51
180
0
LINE
8
0
62
7
10
226
20
15
30
0
11
229
21
15
31
0
0
LINE
8
0
62
7
10
231
20
17
30
0
11
231
21
33
31
0
0
LINE
8
0
62
7
10
229
20
35
30
0
11
226
21
35
31
0
0
LINE
8
0
62
7
10
224
20
33
30
0
11
224
21
17
31
0
0
ARC
8
0
62
7
10
226
20
17
30
0
40
2
50
180
51
270
0
ARC
8
0
62
7
10
229
20
17
30
0
40
2
50
270
51
360
0
ARC
8
0
62
7
10
229
20
33
30
0
40
2
50
0
51
90
0
ARC
8
0
62
7
10
226
20
33
30
0
40
2
50
90
51
180
0
LINE
8
0
62
7
10
239
20
15
30
0
11
242
21
15
31
0
0
LINE
8
0
62
7
10
244
20
17
30
0
11
244
21
33
31
0
0
LINE
8
0
62
7
10
242
20
35
30
0
11
239
21
35
31
0
0
LINE
8
0
62
7
10
237
20
33
30
0
11
237
21
17
31
0
0
ARC
8
0
62
7
10
239
20
17
30
0
40
2
50
180
51
270
0
ARC
8
0
62
7
10
242
20
17
30
0
40
2
50
270
51
360
0
ARC
8
0
62
7
10
242
20
33
30
0
40
2
50
0
51
90
0
ARC
8
0
62
7
10
239
20
33
30
0
40
2
50
90
51
180
0
LINE
8
0
62
7
10
252
20
15
30
0
11
255
21
15
31
0
0
LINE
8
0
62
7
10
257
20
17
30
0
11
257
21
33
31
0
0
LINE
8
0
62
7
10
255
20
35
30
0
11
252
21
35
31
0
0
LINE
8
0
62
7
10
250
20
33
30
0
11
250
21
17
31
0
0
ARC
8
0
62
7
10
252
20
17
30
0
40
2
50
180
51
270
0
ARC
8
0
62
7
10
255
20
17
30
0
40
2
50
270
51
360
0
ARC
8
0
62
7
10
255
20
33
30
0
40
2
50
0
51
90
0
ARC
8
0
62
7
10
252
20
33
30
0
40
2
50
90
51
180
0
LINE
8
0
62
7
10
265
20
15
30
0
11
268
21
15
31
0
0
LINE
8
0
62
7
10
270
20
17
30
0
11
270
21
33
31
0
0
LINE
8
0
62
7
10
268
20
35
30
0
11
265
21
35
31
0
0
LINE
8
0
62
7
10
263
20
33
30
0
11
263
21
17
31
0
0
ARC
8
0
62
7
10
265
20
17
30
0
40
2
50
180
51
270
0
ARC
8
0
62
7
10
268
20
17
30
0
40
2
50
270
51
360
0
ARC
8
0
62
7
10
268
20
33
30
0
40
2
50
0
51
90
0
ARC
8
0
62
7
10
265
20
33
30
0
40
2
50
90
51
180
0
LINE
8
0
62
7
10
278
20
15
30
0
11
281
21
15
31
0
0
LINE
8
0
62
7
10
283
20
17
30
0
11
283
21
33
31
0
0
LINE
8
0
62
7
10
281
20
35
30
0
11
278
21
35
31
0
0
LINE
8
0
62
7
10
276
20
33
30
0
11
276
21
17
31
0
0
ARC
8
0
62
7
10
278
20
17
30
0
40
2
50
180
51
270
0
ARC
8
0
62
7
10
281
20
17
30
0
40
2
50
270
51
360
0
ARC
8
0
62
7
10
281
20
33
30
0
40
2
50
0
51
90
0
ARC
8
0
62
7
10
278
20
33
30
0
40
2
50
90
51
180
0
LINE
8
0
62
7
10
291
20
15
30
0
11
294
21
15
31
0
0
LINE
8
0
62
7
10
296
20
17
30
0
11
296
21
33
31
0
0
LINE
8
0
62
7
10
294
20
35
30
0
11
291
21
35
31
0
0
LINE
8
0
62
7
10
289
20
33
30
0
11
289
21
17
31
0
0
ARC
8
0
62
7
10
291
20
17
30
0
40
2
50
180
51
270
0
ARC
8
0
62
7
10
294
20
17
30
0
40
2
50
270
51
360
0
ARC
8
0
62
7
10
294
20
33
30
0
40
2
50
0
51
90
0
ARC
8
0
62
7
10
291
20
33
30
0
40
2
50
90
51
180
0
LINE
8
0
62
7
10
304
20
15
30
0
11
307
21
15
31
0
0
LINE
8
0
62
7
10
309
20
17
30
0
11
309
21
33
31
0
0
LINE
8
0
62
7
10
307
20
35
30
0
11
304
21
35
31
0
0
LINE
8
0
62
7
10
302
20
33
30
0
11
302
21
17
31
0
0
ARC
8
0
62
7
10
304
20
17
30
0
40
2
50
180
51
270
0
ARC
8
0
62
7
10
307
20
17
30
0
40
2
50
270
51
360
0
ARC
8
0
62
7
10
307
20
33
30
0
40
2
50
0
51
90
0
ARC
8
0
62
7
10
304
20
33
30
0
40
2
50
90
51
180
0
LINE
8
0
62
7
10
317
20
15
30
0
11
320
21
15
31
0
0
LINE
8
0
62
7
10
322
20
17
30
0
11
322
21
33
31
0
0
LINE
8
0
62
7
10
320
20
35
30
0
11
317
21
35
31
0
0
LINE
8
0
62
7
10
315
20
33
30
0
11
315
21
17
31
0
0
ARC
8
0
62
7
10
317
20
17
30
0
40
2
50
180
51
270
0
ARC
8
0
62
7
10
320
20
17
30
0
40
2
50
270
51
360
0
ARC
8
0
62
7
10
320
20
33
30
0
40
2
50
0
51
90
0
ARC
8
0
62
7
10
317
20
33
30
0
40
2
50
90
51
180
0
LINE
8
0
62
7
10
330
20
15
30
0
11
333
21
15
31
0
0
LINE
8
0
62
7
10
335
20
17
30
0
11
335
21
33
31
0
0
LINE
8
0
62
7
10
333
20
35
30
0
11
330
21
35
31
0
0
LINE
8
0
62
7
10
328
20
33
30
0
11
328
21
17
31
0
0
ARC
8
0
62
7
10
330
20
17
30
0
40
2
50
180
51
270
0
ARC
8
0
62
7
10
333
20
17
30
0
40
2
50
270
51
360
0
ARC
8
0
62
7
10
333
20
33
30
0
40
2
50
0
51
90
0
ARC
8
0
62
7
10
330
20
33
30
0
40
2
50
90
51
180
0
LINE
8
0
62
7
10
343
20
15
30
0
11
346
21
15
31
0
0
LINE
8
0
62
7
10
348
20
17
30
0
11
348
21
33
31
0
0
LINE
8
0
62
7
10
346
20
35
30
0
11
343
21
35
31
0
0
LINE
8
0
62
7
10
341
20
33
30
0
11
341
21
17
31
0
0
ARC
8
0
62
7
10
343
20
17
30
0
40
2
50
180
51
270
0
ARC
8
0
62
7
10
346
20
17
30
0
40
2
50
270
51
360
0
ARC
8
0
62
7
10
346
20
33
30
0
40
2
50
0
51
90
0
ARC
8
0
62
7
10
343
20
33
30
0
40
2
50
90
51
180
0
LINE
8
0
62
4
10
265.5
20
8.5
30
0
11
264
21
8.5
31
0
0
LINE
8
0
62
4
10
264
20
8.5
30
0
11
264
21
7.25
31
0
0
LINE
8
0
62
4
10
264
20
7.25
30
0
11
265.5
21
7.25
31
0
0
LINE
8
0
62
4
10
265.5
20
7.25
30
0
11
265.5
21
6
31
0
0
LINE
8
0
62
4
10
265.5
20
6
30
0
11
264
21
6
31
0
0
LINE
8
0
62
4
10
266.25
20
8.5
30
0
11
267.75
21
8.5
31
0
0
LINE
8
0
62
4
10
267
20
8.5
30
0
11
267
21
6
31
0
0
LINE
8
0
62
4
10
266.25
20
6
30
0
11
267.75
21
6
31
0
0
LINE
8
0
62
4
10
268.5
20
6
30
0
11
268.5
21
8.5
31
0
0
LINE
8
0
62
4
10
268.5
20
8.5
30
0
11
269.5
21
8.5
31
0
0
LINE
8
0
62
4
10
269.5
20
8.5
30
0
11
270
21
8
31
0
0
LINE
8
0
62
4
10
270
20
8
30
0
11
270
21
6.5
31
0
0
LINE
8
0
62
4
10
270
20
6.5
30
0
11
269.5
21
6
31
0
0
LINE
8
0
62
4
10
269.5
20
6
30
0
11
268.5
21
6
31
0
0
LINE
8
0
62
4
10
272.25
20
8.5
30
0
11
270.75
21
8.5
31
0
0
LINE
8
0
62
4
10
270.75
20
8.5
30
0
11
270.75
21
6
31
0
0
LINE
8
0
62
4
10
270.75
20
6
30
0
11
272.25
21
6
31
0
0
LINE
8
0
62
4
10
270.75
20
7.25
30
0
11
272
21
7.25
31
0
0
LINE
8
0
62
4
10
275.25
20
6
30
0
11
275.25
21
8.5
31
0
0
LINE
8
0
62
4
10
275.25
20
8.5
30
0
11
276.75
21
8.5
31
0
0
LINE
8
0
62
4
10
276.75
20
8.5
30
0
11
276.75
21
7.25
31
0
0
LINE
8
0
62
4
10
276.75
20
7.25
30
0
11
275.25
21
7.25
31
0
0
LINE
8
0
62
4
10
277.5
20
6
30
0
11
277.5
21
8.5
31
0
0
LINE
8
0
62
4
10
277.5
20
8.5
30
0
11
279
21
8.5
31
0
0
LINE
8
0
62
4
10
279
20
8.5
30
0
11
279
21
6
31
0
0
LINE
8
0
62
4
10
277.5
20
7.25
30
0
11
279
21
7.25
31
0
0
LINE
8
0
62
4
10
279.75
20
6
30
0
11
279.75
21
8.5
31
0
0
LINE
8
0
62
4
10
279.75
20
8.5
30
0
11
281.25
21
6
31
0
0
LINE
8
0
62
4
10
281.25
20
6
30
0
11
281.25
21
8.5
31
0
0
LINE
8
0
62
4
10
283.5
20
8.5
30
0
11
282
21
8.5
31
0
0
LINE
8
0
62
4
10
282
20
8.5
30
0
11
282
21
6
31
0
0
LINE
8
0
62
4
10
282
20
6
30
0
11
283.5
21
6
31
0
0
LINE
8
0
62
4
10
282
20
7.25
30
0
11
283.25
21
7.25
31
0
0
LINE
8
0
62
4
10
284.25
20
8.5
30
0
11
284.25
21
6
31
0
0
LINE
8
0
62
4
10
284.25
20
6
30
0
11
285.75
21
6
31
0
0
ENDSEC
0
EOF
